<?xml version="1.0" encoding="UTF-8" standalone="no"?>
<svg width="193.146mm" height="149.49mm"
 xmlns="http://www.w3.org/2000/svg" xmlns:xlink="http://www.w3.org/1999/xlink"  version="1.2" baseProfile="tiny">
<title>college-line-chart-trunc</title>
<desc>Rendered by Tableau</desc>
<defs>
</defs>
<g fill="none" stroke="black" stroke-width="1" fill-rule="evenodd" stroke-linecap="square" stroke-linejoin="bevel" >

<g >
<g fill="#ffffff" fill-opacity="1" stroke="none" transform="matrix(1,0,0,1,0,0)"
font-family="Benton Sans Book" font-size="16" font-weight="400" font-style="normal" 
>
<rect x="0" y="0" width="730" height="565"/>
</g>
</g>

<g >
<g fill="#ffffff" fill-opacity="1" stroke="none" transform="matrix(1,0,0,1,0,0)"
font-family="Benton Sans Book" font-size="16" font-weight="400" font-style="normal" 
>
<rect x="0" y="43" width="580" height="522"/>
</g>
</g>

<clipPath id ="clip1" >
<rect x="-1" y="-1" height="57" width="523" transform="matrix(1,0,0,1,59,510)" />
</clipPath>
<g  clip-path="url(#clip1)" 
>
<g fill="none" stroke="#000000" stroke-opacity="1" stroke-width="1" stroke-linecap="square" stroke-linejoin="bevel" transform="matrix(1,0,0,1,59,510)"
font-family="Benton Sans Book" font-size="16" font-weight="400" font-style="normal" 
>
</g>
</g>

<g  clip-path="url(#clip1)" 
>
<g fill="none" stroke="#f5f5f5" stroke-opacity="1" stroke-width="1" stroke-linecap="butt" stroke-linejoin="bevel" transform="matrix(1,0,0,1,59,510)"
font-family="Benton Sans Book" font-size="16" font-weight="400" font-style="normal" 
>
<polyline fill="none" vector-effect="none" points="72,0 72,5 " />
<polyline fill="none" vector-effect="none" points="150,0 150,5 " />
<polyline fill="none" vector-effect="none" points="229,0 229,5 " />
<polyline fill="none" vector-effect="none" points="307,0 307,5 " />
<polyline fill="none" vector-effect="none" points="386,0 386,5 " />
<polyline fill="none" vector-effect="none" points="464,0 464,5 " />
</g>
</g>

<g  clip-path="url(#clip1)" 
>
<g fill="none" stroke="#f5f5f5" stroke-opacity="1" stroke-width="1" stroke-linecap="butt" stroke-linejoin="bevel" transform="matrix(1,0,0,1,59,510)"
font-family="Benton Sans Book" font-size="16" font-weight="400" font-style="normal" 
>
<polyline fill="none" vector-effect="none" points="9,0 9,2 " />
<polyline fill="none" vector-effect="none" points="25,0 25,2 " />
<polyline fill="none" vector-effect="none" points="40,0 40,2 " />
<polyline fill="none" vector-effect="none" points="56,0 56,2 " />
<polyline fill="none" vector-effect="none" points="87,0 87,2 " />
<polyline fill="none" vector-effect="none" points="103,0 103,2 " />
<polyline fill="none" vector-effect="none" points="119,0 119,2 " />
<polyline fill="none" vector-effect="none" points="134,0 134,2 " />
<polyline fill="none" vector-effect="none" points="166,0 166,2 " />
<polyline fill="none" vector-effect="none" points="182,0 182,2 " />
<polyline fill="none" vector-effect="none" points="197,0 197,2 " />
<polyline fill="none" vector-effect="none" points="213,0 213,2 " />
<polyline fill="none" vector-effect="none" points="244,0 244,2 " />
<polyline fill="none" vector-effect="none" points="260,0 260,2 " />
<polyline fill="none" vector-effect="none" points="276,0 276,2 " />
<polyline fill="none" vector-effect="none" points="291,0 291,2 " />
<polyline fill="none" vector-effect="none" points="323,0 323,2 " />
<polyline fill="none" vector-effect="none" points="338,0 338,2 " />
<polyline fill="none" vector-effect="none" points="354,0 354,2 " />
<polyline fill="none" vector-effect="none" points="370,0 370,2 " />
<polyline fill="none" vector-effect="none" points="401,0 401,2 " />
<polyline fill="none" vector-effect="none" points="417,0 417,2 " />
<polyline fill="none" vector-effect="none" points="433,0 433,2 " />
<polyline fill="none" vector-effect="none" points="448,0 448,2 " />
<polyline fill="none" vector-effect="none" points="480,0 480,2 " />
<polyline fill="none" vector-effect="none" points="495,0 495,2 " />
<polyline fill="none" vector-effect="none" points="511,0 511,2 " />
</g>
</g>

<g  clip-path="url(#clip1)" 
>
<g fill="none" stroke="#666666" stroke-opacity="1" stroke-width="1" stroke-linecap="square" stroke-linejoin="bevel" transform="matrix(1,0,0,1,59,510)"
font-family="Arial" font-size="12" font-weight="400" font-style="normal" 
>
<text fill="#666666" fill-opacity="1" stroke="none" xml:space="preserve" x="58.6563" y="18" font-family="Arial" font-size="12" font-weight="400" font-style="normal" 
 >1996</text>
</g>
</g>

<g  clip-path="url(#clip1)" 
>
<g fill="none" stroke="#666666" stroke-opacity="1" stroke-width="1" stroke-linecap="square" stroke-linejoin="bevel" transform="matrix(1,0,0,1,59,510)"
font-family="Arial" font-size="12" font-weight="400" font-style="normal" 
>
<text fill="#666666" fill-opacity="1" stroke="none" xml:space="preserve" x="137.156" y="18" font-family="Arial" font-size="12" font-weight="400" font-style="normal" 
 >2001</text>
</g>
</g>

<g  clip-path="url(#clip1)" 
>
<g fill="none" stroke="#666666" stroke-opacity="1" stroke-width="1" stroke-linecap="square" stroke-linejoin="bevel" transform="matrix(1,0,0,1,59,510)"
font-family="Arial" font-size="12" font-weight="400" font-style="normal" 
>
<text fill="#666666" fill-opacity="1" stroke="none" xml:space="preserve" x="215.656" y="18" font-family="Arial" font-size="12" font-weight="400" font-style="normal" 
 >2006</text>
</g>
</g>

<g  clip-path="url(#clip1)" 
>
<g fill="none" stroke="#666666" stroke-opacity="1" stroke-width="1" stroke-linecap="square" stroke-linejoin="bevel" transform="matrix(1,0,0,1,59,510)"
font-family="Arial" font-size="12" font-weight="400" font-style="normal" 
>
<text fill="#666666" fill-opacity="1" stroke="none" xml:space="preserve" x="294.156" y="18" font-family="Arial" font-size="12" font-weight="400" font-style="normal" 
 >2011</text>
</g>
</g>

<g  clip-path="url(#clip1)" 
>
<g fill="none" stroke="#666666" stroke-opacity="1" stroke-width="1" stroke-linecap="square" stroke-linejoin="bevel" transform="matrix(1,0,0,1,59,510)"
font-family="Arial" font-size="12" font-weight="400" font-style="normal" 
>
<text fill="#666666" fill-opacity="1" stroke="none" xml:space="preserve" x="372.656" y="18" font-family="Arial" font-size="12" font-weight="400" font-style="normal" 
 >2016</text>
</g>
</g>

<g  clip-path="url(#clip1)" 
>
<g fill="none" stroke="#666666" stroke-opacity="1" stroke-width="1" stroke-linecap="square" stroke-linejoin="bevel" transform="matrix(1,0,0,1,59,510)"
font-family="Arial" font-size="12" font-weight="400" font-style="normal" 
>
<text fill="#666666" fill-opacity="1" stroke="none" xml:space="preserve" x="451.156" y="18" font-family="Arial" font-size="12" font-weight="400" font-style="normal" 
 >2021</text>
</g>
</g>

<g  clip-path="url(#clip1)" 
>
<g fill="none" stroke="#333333" stroke-opacity="1" stroke-width="1" stroke-linecap="square" stroke-linejoin="bevel" transform="matrix(1,0,0,1,59,510)"
font-family="Arial" font-size="12" font-weight="400" font-style="normal" 
>
<text fill="#333333" fill-opacity="1" stroke="none" xml:space="preserve" x="226.766" y="45" font-family="Arial" font-size="12" font-weight="400" font-style="normal" 
 >Year of Year</text>
</g>
</g>

<g >
<g fill="none" stroke="#333333" stroke-opacity="1" stroke-width="1" stroke-linecap="square" stroke-linejoin="bevel" transform="matrix(1,0,0,1,59,510)"
font-family="Arial" font-size="12" font-weight="400" font-style="normal" 
>
</g>
</g>

<clipPath id ="clip2" >
<rect x="-1" y="-1" height="469" width="61" transform="matrix(1,0,0,1,0,43)" />
</clipPath>
<g  clip-path="url(#clip2)" 
>
<g fill="none" stroke="#333333" stroke-opacity="1" stroke-width="1" stroke-linecap="square" stroke-linejoin="bevel" transform="matrix(1,0,0,1,0,43)"
font-family="Arial" font-size="12" font-weight="400" font-style="normal" 
>
</g>
</g>

<g  clip-path="url(#clip2)" 
>
<g fill="none" stroke="#f5f5f5" stroke-opacity="1" stroke-width="1" stroke-linecap="butt" stroke-linejoin="bevel" transform="matrix(1,0,0,1,0,43)"
font-family="Arial" font-size="12" font-weight="400" font-style="normal" 
>
<polyline fill="none" vector-effect="none" points="54,467 59,467 " />
<polyline fill="none" vector-effect="none" points="54,389 59,389 " />
<polyline fill="none" vector-effect="none" points="54,311 59,311 " />
<polyline fill="none" vector-effect="none" points="54,234 59,234 " />
<polyline fill="none" vector-effect="none" points="54,156 59,156 " />
<polyline fill="none" vector-effect="none" points="54,78 59,78 " />
<polyline fill="none" vector-effect="none" points="54,0 59,0 " />
</g>
</g>

<g  clip-path="url(#clip2)" 
>
<g fill="none" stroke="#666666" stroke-opacity="1" stroke-width="1" stroke-linecap="square" stroke-linejoin="bevel" transform="matrix(1,0,0,1,0,43)"
font-family="Arial" font-size="12" font-weight="400" font-style="normal" 
>
<text fill="#666666" fill-opacity="1" stroke="none" xml:space="preserve" x="38.6563" y="464" font-family="Arial" font-size="12" font-weight="400" font-style="normal" 
 >50</text>
</g>
</g>

<g  clip-path="url(#clip2)" 
>
<g fill="none" stroke="#666666" stroke-opacity="1" stroke-width="1" stroke-linecap="square" stroke-linejoin="bevel" transform="matrix(1,0,0,1,0,43)"
font-family="Arial" font-size="12" font-weight="400" font-style="normal" 
>
<text fill="#666666" fill-opacity="1" stroke="none" xml:space="preserve" x="38.6563" y="393" font-family="Arial" font-size="12" font-weight="400" font-style="normal" 
 >55</text>
</g>
</g>

<g  clip-path="url(#clip2)" 
>
<g fill="none" stroke="#666666" stroke-opacity="1" stroke-width="1" stroke-linecap="square" stroke-linejoin="bevel" transform="matrix(1,0,0,1,0,43)"
font-family="Arial" font-size="12" font-weight="400" font-style="normal" 
>
<text fill="#666666" fill-opacity="1" stroke="none" xml:space="preserve" x="38.6563" y="315" font-family="Arial" font-size="12" font-weight="400" font-style="normal" 
 >60</text>
</g>
</g>

<g  clip-path="url(#clip2)" 
>
<g fill="none" stroke="#666666" stroke-opacity="1" stroke-width="1" stroke-linecap="square" stroke-linejoin="bevel" transform="matrix(1,0,0,1,0,43)"
font-family="Arial" font-size="12" font-weight="400" font-style="normal" 
>
<text fill="#666666" fill-opacity="1" stroke="none" xml:space="preserve" x="38.6563" y="238" font-family="Arial" font-size="12" font-weight="400" font-style="normal" 
 >65</text>
</g>
</g>

<g  clip-path="url(#clip2)" 
>
<g fill="none" stroke="#666666" stroke-opacity="1" stroke-width="1" stroke-linecap="square" stroke-linejoin="bevel" transform="matrix(1,0,0,1,0,43)"
font-family="Arial" font-size="12" font-weight="400" font-style="normal" 
>
<text fill="#666666" fill-opacity="1" stroke="none" xml:space="preserve" x="38.6563" y="160" font-family="Arial" font-size="12" font-weight="400" font-style="normal" 
 >70</text>
</g>
</g>

<g  clip-path="url(#clip2)" 
>
<g fill="none" stroke="#666666" stroke-opacity="1" stroke-width="1" stroke-linecap="square" stroke-linejoin="bevel" transform="matrix(1,0,0,1,0,43)"
font-family="Arial" font-size="12" font-weight="400" font-style="normal" 
>
<text fill="#666666" fill-opacity="1" stroke="none" xml:space="preserve" x="38.6563" y="82" font-family="Arial" font-size="12" font-weight="400" font-style="normal" 
 >75</text>
</g>
</g>

<g  clip-path="url(#clip2)" 
>
<g fill="none" stroke="#666666" stroke-opacity="1" stroke-width="1" stroke-linecap="square" stroke-linejoin="bevel" transform="matrix(1,0,0,1,0,43)"
font-family="Arial" font-size="12" font-weight="400" font-style="normal" 
>
<text fill="#666666" fill-opacity="1" stroke="none" xml:space="preserve" x="38.6563" y="11" font-family="Arial" font-size="12" font-weight="400" font-style="normal" 
 >80</text>
</g>
</g>

<g  clip-path="url(#clip2)" 
>
<g fill="none" stroke="#666666" stroke-opacity="1" stroke-width="1" stroke-linecap="square" stroke-linejoin="bevel" transform="matrix(1,0,0,1,0,43)"
font-family="Arial" font-size="12" font-weight="400" font-style="normal" 
>
</g>
</g>

<g  clip-path="url(#clip2)" 
>
<g fill="none" stroke="#333333" stroke-opacity="1" stroke-width="1" stroke-linecap="square" stroke-linejoin="bevel" transform="matrix(0,-1,1,0,17.8594,290.836)"
font-family="Arial" font-size="12" font-weight="400" font-style="normal" 
>
<text fill="#333333" fill-opacity="1" stroke="none" xml:space="preserve" x="0" y="0" font-family="Arial" font-size="12" font-weight="400" font-style="normal" 
 >Value</text>
</g>
</g>

<g  clip-path="url(#clip2)" 
>
<g fill="none" stroke="#666666" stroke-opacity="1" stroke-width="1" stroke-linecap="square" stroke-linejoin="bevel" transform="matrix(1,0,0,1,0,43)"
font-family="Arial" font-size="12" font-weight="400" font-style="normal" 
>
</g>
</g>

<g >
<g fill="none" stroke="#666666" stroke-opacity="1" stroke-width="1" stroke-linecap="square" stroke-linejoin="bevel" transform="matrix(1,0,0,1,0,43)"
font-family="Arial" font-size="12" font-weight="400" font-style="normal" 
>
</g>
</g>

<g  clip-path="url(#clip2)" 
>
<g fill="none" stroke="#666666" stroke-opacity="1" stroke-width="1" stroke-linecap="square" stroke-linejoin="bevel" transform="matrix(1,0,0,1,59,43)"
font-family="Arial" font-size="12" font-weight="400" font-style="normal" 
>
</g>
</g>

<clipPath id ="clip3" >
<rect x="0" y="0" height="468" width="522" transform="matrix(1,0,0,1,59,43)" />
</clipPath>
<g  clip-path="url(#clip3)" 
>
<g fill="none" stroke="#666666" stroke-opacity="1" stroke-width="1" stroke-linecap="square" stroke-linejoin="bevel" transform="matrix(1,0,0,1,59,43)"
font-family="Arial" font-size="12" font-weight="400" font-style="normal" 
>
</g>
</g>

<clipPath id ="clip4" >
<rect x="0" y="0" height="468" width="522" transform="matrix(1,0,0,1,59,43)" />
</clipPath>
<g  clip-path="url(#clip4)" 
>
<g fill="none" stroke="#666666" stroke-opacity="1" stroke-width="1" stroke-linecap="square" stroke-linejoin="bevel" transform="matrix(1,0,0,1,59,43)"
font-family="Arial" font-size="12" font-weight="400" font-style="normal" 
>
</g>
</g>

<g  clip-path="url(#clip4)" 
>
<g fill="#ffffff" fill-opacity="1" stroke="none" transform="matrix(1,0,0,1,59,43)"
font-family="Arial" font-size="12" font-weight="400" font-style="normal" 
>
<rect x="0" y="0" width="522" height="468"/>
</g>
</g>

<g  clip-path="url(#clip4)" 
>
<g fill="#ffffff" fill-opacity="1" stroke="none" transform="matrix(1,0,0,1,59,43)"
font-family="Arial" font-size="12" font-weight="400" font-style="normal" 
>
<rect x="0" y="0" width="522" height="468"/>
</g>
</g>

<clipPath id ="clip5" >
<rect x="0" y="0" height="468" width="522" transform="matrix(1,0,0,1,59,43)" />
</clipPath>
<g  clip-path="url(#clip5)" 
>
<g fill="none" stroke="#666666" stroke-opacity="1" stroke-width="1" stroke-linecap="square" stroke-linejoin="bevel" transform="matrix(1,0,0,1,59,43)"
font-family="Arial" font-size="12" font-weight="400" font-style="normal" 
>
</g>
</g>

<g  clip-path="url(#clip5)" 
>
<g fill="#ffffff" fill-opacity="1" stroke="none" transform="matrix(1,0,0,1,59,43)"
font-family="Arial" font-size="12" font-weight="400" font-style="normal" 
>
<rect x="0" y="0" width="522" height="468"/>
</g>
</g>

<clipPath id ="clip6" >
<rect x="0" y="0" height="468" width="522" transform="matrix(1,0,0,1,59,43)" />
</clipPath>
<g  clip-path="url(#clip6)" 
>
<g fill="none" stroke="#666666" stroke-opacity="1" stroke-width="1" stroke-linecap="square" stroke-linejoin="bevel" transform="matrix(1,0,0,1,59,43)"
font-family="Arial" font-size="12" font-weight="400" font-style="normal" 
>
</g>
</g>

<clipPath id ="clip7" >
<rect x="0" y="0" height="468" width="522" transform="matrix(1,0,0,1,59,43)" />
</clipPath>
<g  clip-path="url(#clip7)" 
>
<g fill="none" stroke="#666666" stroke-opacity="1" stroke-width="1" stroke-linecap="square" stroke-linejoin="bevel" transform="matrix(1,0,0,1,59,43)"
font-family="Arial" font-size="12" font-weight="400" font-style="normal" 
>
</g>
</g>

<clipPath id ="clip8" >
<rect x="0" y="0" height="468" width="522" transform="matrix(1,0,0,1,59,43)" />
</clipPath>
<g  clip-path="url(#clip8)" 
>
<g fill="none" stroke="#666666" stroke-opacity="1" stroke-width="1" stroke-linecap="square" stroke-linejoin="bevel" transform="matrix(1,0,0,1,59,43)"
font-family="Arial" font-size="12" font-weight="400" font-style="normal" 
>
</g>
</g>

<clipPath id ="clip9" >
<rect x="0" y="0" height="468" width="522" transform="matrix(1,0,0,1,59,43)" />
</clipPath>
<g  clip-path="url(#clip9)" 
>
<g fill="none" stroke="#666666" stroke-opacity="1" stroke-width="1" stroke-linecap="square" stroke-linejoin="bevel" transform="matrix(1,0,0,1,59,43)"
font-family="Arial" font-size="12" font-weight="400" font-style="normal" 
>
</g>
</g>

<g  clip-path="url(#clip9)" 
>
<g fill="#ffffff" fill-opacity="1" stroke="none" transform="matrix(1,0,0,1,59,43)"
font-family="Arial" font-size="12" font-weight="400" font-style="normal" 
>
<rect x="0" y="0" width="522" height="468"/>
</g>
</g>

<clipPath id ="clip10" >
<rect x="0" y="0" height="468" width="522" transform="matrix(1,0,0,1,59,43)" />
</clipPath>
<g  clip-path="url(#clip10)" 
>
<g fill="none" stroke="#666666" stroke-opacity="1" stroke-width="1" stroke-linecap="square" stroke-linejoin="bevel" transform="matrix(1,0,0,1,59,43)"
font-family="Arial" font-size="12" font-weight="400" font-style="normal" 
>
</g>
</g>

<clipPath id ="clip11" >
<rect x="0" y="0" height="467" width="521" transform="matrix(1,0,0,1,59,43)" />
</clipPath>
<g  clip-path="url(#clip11)" 
>
<g fill="none" stroke="#666666" stroke-opacity="1" stroke-width="1" stroke-linecap="square" stroke-linejoin="bevel" transform="matrix(1,0,0,1,59,43)"
font-family="Arial" font-size="12" font-weight="400" font-style="normal" 
>
</g>
</g>

<g  clip-path="url(#clip11)" 
>
<g fill="none" stroke="#f2f2f2" stroke-opacity="1" stroke-width="1" stroke-linecap="square" stroke-linejoin="bevel" transform="matrix(1,0,0,1,59,43)"
font-family="Arial" font-size="12" font-weight="400" font-style="normal" 
>
<polyline fill="none" vector-effect="none" points="0,467 521,467 " />
<polyline fill="none" vector-effect="none" points="0,389 521,389 " />
<polyline fill="none" vector-effect="none" points="0,311 521,311 " />
<polyline fill="none" vector-effect="none" points="0,234 521,234 " />
<polyline fill="none" vector-effect="none" points="0,156 521,156 " />
<polyline fill="none" vector-effect="none" points="0,78 521,78 " />
<polyline fill="none" vector-effect="none" points="0,0 521,0 " />
</g>
</g>

<clipPath id ="clip12" >
<rect x="0" y="0" height="468" width="522" transform="matrix(1,0,0,1,59,43)" />
</clipPath>
<g  clip-path="url(#clip12)" 
>
<g fill="none" stroke="#f2f2f2" stroke-opacity="1" stroke-width="1" stroke-linecap="square" stroke-linejoin="bevel" transform="matrix(1,0,0,1,59,43)"
font-family="Arial" font-size="12" font-weight="400" font-style="normal" 
>
</g>
</g>

<clipPath id ="clip13" >
<rect x="0" y="0" height="467" width="521" transform="matrix(1,0,0,1,59,43)" />
</clipPath>
<g  clip-path="url(#clip13)" 
>
<g fill="none" stroke="#f2f2f2" stroke-opacity="1" stroke-width="1" stroke-linecap="square" stroke-linejoin="bevel" transform="matrix(1,0,0,1,59,43)"
font-family="Arial" font-size="12" font-weight="400" font-style="normal" 
>
</g>
</g>

<clipPath id ="clip14" >
<rect x="0" y="0" height="468" width="522" transform="matrix(1,0,0,1,59,43)" />
</clipPath>
<g  clip-path="url(#clip14)" 
>
<g fill="none" stroke="#f2f2f2" stroke-opacity="1" stroke-width="1" stroke-linecap="square" stroke-linejoin="bevel" transform="matrix(1,0,0,1,59,43)"
font-family="Arial" font-size="12" font-weight="400" font-style="normal" 
>
</g>
</g>

<clipPath id ="clip15" >
<rect x="0" y="0" height="467" width="521" transform="matrix(1,0,0,1,59,43)" />
</clipPath>
<g  clip-path="url(#clip15)" 
>
<g fill="none" stroke="#f2f2f2" stroke-opacity="1" stroke-width="1" stroke-linecap="square" stroke-linejoin="bevel" transform="matrix(1,0,0,1,59,43)"
font-family="Arial" font-size="12" font-weight="400" font-style="normal" 
>
</g>
</g>

<clipPath id ="clip16" >
<rect x="0" y="0" height="468" width="522" transform="matrix(1,0,0,1,59,43)" />
</clipPath>
<g  clip-path="url(#clip16)" 
>
<g fill="none" stroke="#f2f2f2" stroke-opacity="1" stroke-width="1" stroke-linecap="square" stroke-linejoin="bevel" transform="matrix(1,0,0,1,59,43)"
font-family="Arial" font-size="12" font-weight="400" font-style="normal" 
>
</g>
</g>

<clipPath id ="clip17" >
<rect x="0" y="0" height="468" width="522" transform="matrix(1,0,0,1,59,43)" />
</clipPath>
<g  clip-path="url(#clip17)" 
>
<g fill="none" stroke="#f2f2f2" stroke-opacity="1" stroke-width="1" stroke-linecap="square" stroke-linejoin="bevel" transform="matrix(1,0,0,1,59,43)"
font-family="Arial" font-size="12" font-weight="400" font-style="normal" 
>
</g>
</g>

<clipPath id ="clip18" >
<rect x="0" y="0" height="467" width="521" transform="matrix(1,0,0,1,59,43)" />
</clipPath>
<g  clip-path="url(#clip18)" 
>
<g fill="none" stroke="#f2f2f2" stroke-opacity="1" stroke-width="1" stroke-linecap="square" stroke-linejoin="bevel" transform="matrix(1,0,0,1,59,43)"
font-family="Arial" font-size="12" font-weight="400" font-style="normal" 
>
</g>
</g>

<clipPath id ="clip19" >
<rect x="0" y="0" height="468" width="522" transform="matrix(1,0,0,1,59,43)" />
</clipPath>
<g  clip-path="url(#clip19)" 
>
<g fill="none" stroke="#f2f2f2" stroke-opacity="1" stroke-width="1" stroke-linecap="square" stroke-linejoin="bevel" transform="matrix(1,0,0,1,59,43)"
font-family="Arial" font-size="12" font-weight="400" font-style="normal" 
>
</g>
</g>

<clipPath id ="clip20" >
<rect x="0" y="0" height="467" width="521" transform="matrix(1,0,0,1,59,43)" />
</clipPath>
<g  clip-path="url(#clip20)" 
>
<g fill="none" stroke="#f2f2f2" stroke-opacity="1" stroke-width="1" stroke-linecap="square" stroke-linejoin="bevel" transform="matrix(1,0,0,1,59,43)"
font-family="Arial" font-size="12" font-weight="400" font-style="normal" 
>
</g>
</g>

<clipPath id ="clip21" >
<rect x="0" y="0" height="468" width="522" transform="matrix(1,0,0,1,59,43)" />
</clipPath>
<g  clip-path="url(#clip21)" 
>
<g fill="none" stroke="#f2f2f2" stroke-opacity="1" stroke-width="1" stroke-linecap="square" stroke-linejoin="bevel" transform="matrix(1,0,0,1,59,43)"
font-family="Arial" font-size="12" font-weight="400" font-style="normal" 
>
</g>
</g>

<clipPath id ="clip22" >
<rect x="0" y="0" height="467" width="521" transform="matrix(1,0,0,1,59,43)" />
</clipPath>
<g  clip-path="url(#clip22)" 
>
<g fill="none" stroke="#f2f2f2" stroke-opacity="1" stroke-width="1" stroke-linecap="square" stroke-linejoin="bevel" transform="matrix(1,0,0,1,59,43)"
font-family="Arial" font-size="12" font-weight="400" font-style="normal" 
>
</g>
</g>

<g  clip-path="url(#clip22)" 
>
<g fill="none" stroke="#59a14f" stroke-opacity="1" stroke-width="3" stroke-linecap="round" stroke-linejoin="round" transform="matrix(1,0,0,1,59,43)"
font-family="Arial" font-size="12" font-weight="400" font-style="normal" 
>
<polyline fill="none" vector-effect="none" points="25.5551,227.773 41.2414,262.02 56.9277,290.04 72.614,160.837 88.3433,151.497 104.03,170.177 119.716,243.34 135.402,215.32 151.131,257.35 166.818,181.073 182.504,210.65 198.19,131.26 213.92,149.94 229.606,216.877 245.292,182.63 260.979,132.817 276.708,97.0133 292.394,93.9 308.08,120.363 323.767,135.93 339.496,181.073 355.182,114.137 370.869,115.693 386.555,126.59 402.284,129.703 417.97,135.93 433.657,159.28 449.343,215.32 465.072,163.95 480.759,216.877 496.445,229.33 " />
</g>
</g>

<g  clip-path="url(#clip22)" 
>
<g fill="none" stroke="#f2f2f2" stroke-opacity="1" stroke-width="1" stroke-linecap="square" stroke-linejoin="bevel" transform="matrix(1,0,0,1,59,43)"
font-family="Arial" font-size="12" font-weight="400" font-style="normal" 
>
<path vector-effect="none" fill-rule="nonzero" d="M0,0"/>
</g>
</g>

<g  clip-path="url(#clip22)" 
>
<g fill="none" stroke="#000000" stroke-opacity="1" stroke-width="3" stroke-linecap="round" stroke-linejoin="round" transform="matrix(1,0,0,1,59,43)"
font-family="Arial" font-size="12" font-weight="400" font-style="normal" 
>
<polyline fill="none" vector-effect="none" points="25.5551,271.36 41.2414,282.257 56.9277,282.257 72.614,234 88.3433,202.867 104.03,224.66 119.716,266.69 135.402,260.463 151.131,286.927 166.818,230.887 182.504,251.123 198.19,207.537 213.92,177.96 229.606,218.433 245.292,199.753 260.979,177.96 276.708,154.61 292.394,185.743 308.08,182.63 323.767,215.32 339.496,219.99 355.182,181.073 370.869,168.62 386.555,160.837 402.284,207.537 417.97,170.177 433.657,215.32 449.343,269.803 465.072,283.813 480.759,280.7 496.445,290.04 " />
</g>
</g>

<g  clip-path="url(#clip22)" 
>
<g fill="none" stroke="#f2f2f2" stroke-opacity="1" stroke-width="1" stroke-linecap="square" stroke-linejoin="bevel" transform="matrix(1,0,0,1,59,43)"
font-family="Arial" font-size="12" font-weight="400" font-style="normal" 
>
<path vector-effect="none" fill-rule="nonzero" d="M0,0"/>
</g>
</g>

<g  clip-path="url(#clip22)" 
>
<g fill="none" stroke="#4e79a7" stroke-opacity="1" stroke-width="3" stroke-linecap="round" stroke-linejoin="round" transform="matrix(1,0,0,1,59,43)"
font-family="Arial" font-size="12" font-weight="400" font-style="normal" 
>
<polyline fill="none" vector-effect="none" points="25.5551,316.503 41.2414,302.493 56.9277,271.36 72.614,310.277 88.3433,257.35 104.03,274.473 119.716,290.04 135.402,313.39 151.131,316.503 166.818,279.143 182.504,293.153 198.19,290.04 213.92,210.65 229.606,219.99 245.292,216.877 260.979,219.99 276.708,218.433 292.394,268.247 308.08,240.227 323.767,291.597 339.496,257.35 355.182,249.567 370.869,221.547 386.555,196.64 402.284,294.71 417.97,204.423 433.657,280.7 449.343,322.73 465.072,391.223 480.759,355.42 496.445,349.193 " />
</g>
</g>

<g  clip-path="url(#clip22)" 
>
<g fill="none" stroke="#f2f2f2" stroke-opacity="1" stroke-width="1" stroke-linecap="square" stroke-linejoin="bevel" transform="matrix(1,0,0,1,59,43)"
font-family="Arial" font-size="12" font-weight="400" font-style="normal" 
>
<path vector-effect="none" fill-rule="nonzero" d="M0,0"/>
</g>
</g>

<clipPath id ="clip23" >
<rect x="0" y="0" height="468" width="522" transform="matrix(1,0,0,1,59,43)" />
</clipPath>
<g  clip-path="url(#clip23)" 
>
<g fill="none" stroke="#f2f2f2" stroke-opacity="1" stroke-width="1" stroke-linecap="square" stroke-linejoin="bevel" transform="matrix(1,0,0,1,59,43)"
font-family="Arial" font-size="12" font-weight="400" font-style="normal" 
>
</g>
</g>

<clipPath id ="clip24" >
<rect x="0" y="0" height="468" width="522" transform="matrix(1,0,0,1,59,43)" />
</clipPath>
<g  clip-path="url(#clip24)" 
>
<g fill="none" stroke="#f2f2f2" stroke-opacity="1" stroke-width="1" stroke-linecap="square" stroke-linejoin="bevel" transform="matrix(1,0,0,1,59,43)"
font-family="Arial" font-size="12" font-weight="400" font-style="normal" 
>
</g>
</g>

<clipPath id ="clip25" >
<rect x="0" y="0" height="467" width="521" transform="matrix(1,0,0,1,59,43)" />
</clipPath>
<g  clip-path="url(#clip25)" 
>
<g fill="none" stroke="#f2f2f2" stroke-opacity="1" stroke-width="1" stroke-linecap="square" stroke-linejoin="bevel" transform="matrix(1,0,0,1,59,43)"
font-family="Arial" font-size="12" font-weight="400" font-style="normal" 
>
</g>
</g>

<clipPath id ="clip26" >
<rect x="0" y="0" height="468" width="522" transform="matrix(1,0,0,1,59,43)" />
</clipPath>
<g  clip-path="url(#clip26)" 
>
<g fill="none" stroke="#f2f2f2" stroke-opacity="1" stroke-width="1" stroke-linecap="square" stroke-linejoin="bevel" transform="matrix(1,0,0,1,59,43)"
font-family="Arial" font-size="12" font-weight="400" font-style="normal" 
>
</g>
</g>

<clipPath id ="clip27" >
<rect x="0" y="0" height="467" width="521" transform="matrix(1,0,0,1,59,43)" />
</clipPath>
<g  clip-path="url(#clip27)" 
>
<g fill="none" stroke="#f2f2f2" stroke-opacity="1" stroke-width="1" stroke-linecap="square" stroke-linejoin="bevel" transform="matrix(1,0,0,1,59,43)"
font-family="Arial" font-size="12" font-weight="400" font-style="normal" 
>
</g>
</g>

<clipPath id ="clip28" >
<rect x="0" y="0" height="468" width="522" transform="matrix(1,0,0,1,59,43)" />
</clipPath>
<g  clip-path="url(#clip28)" 
>
<g fill="none" stroke="#f2f2f2" stroke-opacity="1" stroke-width="1" stroke-linecap="square" stroke-linejoin="bevel" transform="matrix(1,0,0,1,59,43)"
font-family="Arial" font-size="12" font-weight="400" font-style="normal" 
>
</g>
</g>

<clipPath id ="clip29" >
<rect x="0" y="0" height="467" width="521" transform="matrix(1,0,0,1,59,43)" />
</clipPath>
<g  clip-path="url(#clip29)" 
>
<g fill="none" stroke="#f2f2f2" stroke-opacity="1" stroke-width="1" stroke-linecap="square" stroke-linejoin="bevel" transform="matrix(1,0,0,1,59,43)"
font-family="Arial" font-size="12" font-weight="400" font-style="normal" 
>
</g>
</g>

<clipPath id ="clip30" >
<rect x="0" y="0" height="468" width="522" transform="matrix(1,0,0,1,59,43)" />
</clipPath>
<g  clip-path="url(#clip30)" 
>
<g fill="none" stroke="#f2f2f2" stroke-opacity="1" stroke-width="1" stroke-linecap="square" stroke-linejoin="bevel" transform="matrix(1,0,0,1,59,43)"
font-family="Arial" font-size="12" font-weight="400" font-style="normal" 
>
</g>
</g>

<clipPath id ="clip31" >
<rect x="0" y="0" height="468" width="522" transform="matrix(1,0,0,1,59,43)" />
</clipPath>
<g  clip-path="url(#clip31)" 
>
<g fill="none" stroke="#f2f2f2" stroke-opacity="1" stroke-width="1" stroke-linecap="square" stroke-linejoin="bevel" transform="matrix(1,0,0,1,59,43)"
font-family="Arial" font-size="12" font-weight="400" font-style="normal" 
>
</g>
</g>

<clipPath id ="clip32" >
<rect x="0" y="0" height="467" width="521" transform="matrix(1,0,0,1,59,43)" />
</clipPath>
<g  clip-path="url(#clip32)" 
>
<g fill="none" stroke="#f2f2f2" stroke-opacity="1" stroke-width="1" stroke-linecap="square" stroke-linejoin="bevel" transform="matrix(1,0,0,1,59,43)"
font-family="Arial" font-size="12" font-weight="400" font-style="normal" 
>
</g>
</g>

<clipPath id ="clip33" >
<rect x="0" y="0" height="468" width="522" transform="matrix(1,0,0,1,59,43)" />
</clipPath>
<g  clip-path="url(#clip33)" 
>
<g fill="none" stroke="#f2f2f2" stroke-opacity="1" stroke-width="1" stroke-linecap="square" stroke-linejoin="bevel" transform="matrix(1,0,0,1,59,43)"
font-family="Arial" font-size="12" font-weight="400" font-style="normal" 
>
</g>
</g>

<clipPath id ="clip34" >
<rect x="0" y="0" height="467" width="521" transform="matrix(1,0,0,1,59,43)" />
</clipPath>
<g  clip-path="url(#clip34)" 
>
<g fill="none" stroke="#f2f2f2" stroke-opacity="1" stroke-width="1" stroke-linecap="square" stroke-linejoin="bevel" transform="matrix(1,0,0,1,59,43)"
font-family="Arial" font-size="12" font-weight="400" font-style="normal" 
>
</g>
</g>

<clipPath id ="clip35" >
<rect x="0" y="0" height="468" width="522" transform="matrix(1,0,0,1,59,43)" />
</clipPath>
<g  clip-path="url(#clip35)" 
>
<g fill="none" stroke="#f2f2f2" stroke-opacity="1" stroke-width="1" stroke-linecap="square" stroke-linejoin="bevel" transform="matrix(1,0,0,1,59,43)"
font-family="Arial" font-size="12" font-weight="400" font-style="normal" 
>
</g>
</g>

<clipPath id ="clip36" >
<rect x="0" y="0" height="467" width="521" transform="matrix(1,0,0,1,59,43)" />
</clipPath>
<g  clip-path="url(#clip36)" 
>
<g fill="none" stroke="#f2f2f2" stroke-opacity="1" stroke-width="1" stroke-linecap="square" stroke-linejoin="bevel" transform="matrix(1,0,0,1,59,43)"
font-family="Arial" font-size="12" font-weight="400" font-style="normal" 
>
</g>
</g>

<clipPath id ="clip37" >
<rect x="0" y="0" height="468" width="522" transform="matrix(1,0,0,1,59,43)" />
</clipPath>
<g  clip-path="url(#clip37)" 
>
<g fill="none" stroke="#f2f2f2" stroke-opacity="1" stroke-width="1" stroke-linecap="square" stroke-linejoin="bevel" transform="matrix(1,0,0,1,59,43)"
font-family="Arial" font-size="12" font-weight="400" font-style="normal" 
>
</g>
</g>

<clipPath id ="clip38" >
<rect x="0" y="0" height="468" width="522" transform="matrix(1,0,0,1,59,43)" />
</clipPath>
<g  clip-path="url(#clip38)" 
>
<g fill="none" stroke="#f2f2f2" stroke-opacity="1" stroke-width="1" stroke-linecap="square" stroke-linejoin="bevel" transform="matrix(1,0,0,1,59,43)"
font-family="Arial" font-size="12" font-weight="400" font-style="normal" 
>
</g>
</g>

<clipPath id ="clip39" >
<rect x="0" y="0" height="467" width="521" transform="matrix(1,0,0,1,59,43)" />
</clipPath>
<g  clip-path="url(#clip39)" 
>
<g fill="none" stroke="#f2f2f2" stroke-opacity="1" stroke-width="1" stroke-linecap="square" stroke-linejoin="bevel" transform="matrix(1,0,0,1,59,43)"
font-family="Arial" font-size="12" font-weight="400" font-style="normal" 
>
</g>
</g>

<clipPath id ="clip40" >
<rect x="0" y="0" height="468" width="522" transform="matrix(1,0,0,1,59,43)" />
</clipPath>
<g  clip-path="url(#clip40)" 
>
<g fill="none" stroke="#f2f2f2" stroke-opacity="1" stroke-width="1" stroke-linecap="square" stroke-linejoin="bevel" transform="matrix(1,0,0,1,59,43)"
font-family="Arial" font-size="12" font-weight="400" font-style="normal" 
>
</g>
</g>

<clipPath id ="clip41" >
<rect x="0" y="0" height="467" width="521" transform="matrix(1,0,0,1,59,43)" />
</clipPath>
<g  clip-path="url(#clip41)" 
>
<g fill="none" stroke="#f2f2f2" stroke-opacity="1" stroke-width="1" stroke-linecap="square" stroke-linejoin="bevel" transform="matrix(1,0,0,1,59,43)"
font-family="Arial" font-size="12" font-weight="400" font-style="normal" 
>
</g>
</g>

<clipPath id ="clip42" >
<rect x="0" y="0" height="468" width="522" transform="matrix(1,0,0,1,59,43)" />
</clipPath>
<g  clip-path="url(#clip42)" 
>
<g fill="none" stroke="#f2f2f2" stroke-opacity="1" stroke-width="1" stroke-linecap="square" stroke-linejoin="bevel" transform="matrix(1,0,0,1,59,43)"
font-family="Arial" font-size="12" font-weight="400" font-style="normal" 
>
</g>
</g>

<clipPath id ="clip43" >
<rect x="0" y="0" height="467" width="521" transform="matrix(1,0,0,1,59,43)" />
</clipPath>
<g  clip-path="url(#clip43)" 
>
<g fill="none" stroke="#f2f2f2" stroke-opacity="1" stroke-width="1" stroke-linecap="square" stroke-linejoin="bevel" transform="matrix(1,0,0,1,59,43)"
font-family="Arial" font-size="12" font-weight="400" font-style="normal" 
>
</g>
</g>

<clipPath id ="clip44" >
<rect x="0" y="0" height="468" width="522" transform="matrix(1,0,0,1,59,43)" />
</clipPath>
<g  clip-path="url(#clip44)" 
>
<g fill="none" stroke="#f2f2f2" stroke-opacity="1" stroke-width="1" stroke-linecap="square" stroke-linejoin="bevel" transform="matrix(1,0,0,1,59,43)"
font-family="Arial" font-size="12" font-weight="400" font-style="normal" 
>
</g>
</g>

<clipPath id ="clip45" >
<rect x="0" y="0" height="468" width="522" transform="matrix(1,0,0,1,59,43)" />
</clipPath>
<g  clip-path="url(#clip45)" 
>
<g fill="none" stroke="#f2f2f2" stroke-opacity="1" stroke-width="1" stroke-linecap="square" stroke-linejoin="bevel" transform="matrix(1,0,0,1,59,43)"
font-family="Arial" font-size="12" font-weight="400" font-style="normal" 
>
</g>
</g>

<clipPath id ="clip46" >
<rect x="0" y="0" height="467" width="521" transform="matrix(1,0,0,1,59,43)" />
</clipPath>
<g  clip-path="url(#clip46)" 
>
<g fill="none" stroke="#f2f2f2" stroke-opacity="1" stroke-width="1" stroke-linecap="square" stroke-linejoin="bevel" transform="matrix(1,0,0,1,59,43)"
font-family="Arial" font-size="12" font-weight="400" font-style="normal" 
>
</g>
</g>

<clipPath id ="clip47" >
<rect x="0" y="0" height="468" width="522" transform="matrix(1,0,0,1,59,43)" />
</clipPath>
<g  clip-path="url(#clip47)" 
>
<g fill="none" stroke="#f2f2f2" stroke-opacity="1" stroke-width="1" stroke-linecap="square" stroke-linejoin="bevel" transform="matrix(1,0,0,1,59,43)"
font-family="Arial" font-size="12" font-weight="400" font-style="normal" 
>
</g>
</g>

<clipPath id ="clip48" >
<rect x="0" y="0" height="467" width="521" transform="matrix(1,0,0,1,59,43)" />
</clipPath>
<g  clip-path="url(#clip48)" 
>
<g fill="none" stroke="#f2f2f2" stroke-opacity="1" stroke-width="1" stroke-linecap="square" stroke-linejoin="bevel" transform="matrix(1,0,0,1,59,43)"
font-family="Arial" font-size="12" font-weight="400" font-style="normal" 
>
</g>
</g>

<clipPath id ="clip49" >
<rect x="0" y="0" height="468" width="522" transform="matrix(1,0,0,1,59,43)" />
</clipPath>
<g  clip-path="url(#clip49)" 
>
<g fill="none" stroke="#f2f2f2" stroke-opacity="1" stroke-width="1" stroke-linecap="square" stroke-linejoin="bevel" transform="matrix(1,0,0,1,59,43)"
font-family="Arial" font-size="12" font-weight="400" font-style="normal" 
>
</g>
</g>

<clipPath id ="clip50" >
<rect x="0" y="0" height="467" width="521" transform="matrix(1,0,0,1,59,43)" />
</clipPath>
<g  clip-path="url(#clip50)" 
>
<g fill="none" stroke="#f2f2f2" stroke-opacity="1" stroke-width="1" stroke-linecap="square" stroke-linejoin="bevel" transform="matrix(1,0,0,1,59,43)"
font-family="Arial" font-size="12" font-weight="400" font-style="normal" 
>
</g>
</g>

<clipPath id ="clip51" >
<rect x="0" y="0" height="468" width="522" transform="matrix(1,0,0,1,59,43)" />
</clipPath>
<g  clip-path="url(#clip51)" 
>
<g fill="none" stroke="#f2f2f2" stroke-opacity="1" stroke-width="1" stroke-linecap="square" stroke-linejoin="bevel" transform="matrix(1,0,0,1,59,43)"
font-family="Arial" font-size="12" font-weight="400" font-style="normal" 
>
</g>
</g>

<clipPath id ="clip52" >
<rect x="0" y="0" height="468" width="522" transform="matrix(1,0,0,1,59,43)" />
</clipPath>
<g  clip-path="url(#clip52)" 
>
<g fill="none" stroke="#f2f2f2" stroke-opacity="1" stroke-width="1" stroke-linecap="square" stroke-linejoin="bevel" transform="matrix(1,0,0,1,59,43)"
font-family="Arial" font-size="12" font-weight="400" font-style="normal" 
>
</g>
</g>

<clipPath id ="clip53" >
<rect x="0" y="0" height="468" width="522" transform="matrix(1,0,0,1,59,43)" />
</clipPath>
<g  clip-path="url(#clip53)" 
>
<g fill="none" stroke="#f2f2f2" stroke-opacity="1" stroke-width="1" stroke-linecap="square" stroke-linejoin="bevel" transform="matrix(1,0,0,1,59,43)"
font-family="Arial" font-size="12" font-weight="400" font-style="normal" 
>
</g>
</g>

<g  clip-path="url(#clip53)" 
>
<g fill="none" stroke="#f5f5f5" stroke-opacity="1" stroke-width="1" stroke-linecap="square" stroke-linejoin="bevel" transform="matrix(1,0,0,1,59,43)"
font-family="Arial" font-size="12" font-weight="400" font-style="normal" 
>
<polyline fill="none" vector-effect="none" points="0,467 521,467 " />
<polyline fill="none" vector-effect="none" points="0,0 0,467 " />
</g>
</g>

<clipPath id ="clip54" >
<rect x="0" y="0" height="468" width="522" transform="matrix(1,0,0,1,59,43)" />
</clipPath>
<g  clip-path="url(#clip54)" 
>
<g fill="none" stroke="#f5f5f5" stroke-opacity="1" stroke-width="1" stroke-linecap="square" stroke-linejoin="bevel" transform="matrix(1,0,0,1,59,43)"
font-family="Arial" font-size="12" font-weight="400" font-style="normal" 
>
</g>
</g>

<g >
<g fill="none" stroke="#f5f5f5" stroke-opacity="1" stroke-width="1" stroke-linecap="square" stroke-linejoin="bevel" transform="matrix(1,0,0,1,59,43)"
font-family="Arial" font-size="12" font-weight="400" font-style="normal" 
>
</g>
</g>

<g >
<g fill="none" stroke="#333333" stroke-opacity="1" stroke-width="1" stroke-linecap="square" stroke-linejoin="bevel" transform="matrix(1,0,0,1,0,0)"
font-family="Arial" font-size="20" font-weight="400" font-style="normal" 
>
<text fill="#333333" fill-opacity="1" stroke="none" xml:space="preserve" x="4" y="27" font-family="Arial" font-size="20" font-weight="400" font-style="normal" 
 >Percentages of High School Grads going to College by Sex</text>
</g>
</g>

<clipPath id ="clip55" >
<rect x="0" y="0" height="78" width="140" transform="matrix(1,0,0,1,590,43)" />
</clipPath>
<g  clip-path="url(#clip55)" 
>
<g fill="none" stroke="#333333" stroke-opacity="1" stroke-width="1" stroke-linecap="square" stroke-linejoin="bevel" transform="matrix(1,0,0,1,590,43)"
font-family="Arial" font-size="20" font-weight="400" font-style="normal" 
>
</g>
</g>

<g  clip-path="url(#clip55)" 
>
<g fill="#ffffff" fill-opacity="1" stroke="none" transform="matrix(1,0,0,1,590,43)"
font-family="Arial" font-size="20" font-weight="400" font-style="normal" 
>
<rect x="0" y="0" width="140" height="78"/>
</g>
</g>

<g  clip-path="url(#clip55)" 
>
<g fill="none" stroke="#333333" stroke-opacity="1" stroke-width="1" stroke-linecap="square" stroke-linejoin="bevel" transform="matrix(1,0,0,1,590,43)"
font-family="Arial" font-size="12" font-weight="400" font-style="normal" 
>
<text fill="#333333" fill-opacity="1" stroke="none" xml:space="preserve" x="1" y="13" font-family="Arial" font-size="12" font-weight="400" font-style="normal" 
 >Measure Names</text>
</g>
</g>

<g  clip-path="url(#clip55)" 
>
<g fill="#ffffff" fill-opacity="1" stroke="none" transform="matrix(1,0,0,1,590,43)"
font-family="Arial" font-size="12" font-weight="400" font-style="normal" 
>
<rect x="3" y="18" width="14" height="14"/>
</g>
</g>

<g  clip-path="url(#clip55)" 
>
<g fill="#4e79a7" fill-opacity="1" stroke="none" transform="matrix(1,0,0,1,590,43)"
font-family="Arial" font-size="12" font-weight="400" font-style="normal" 
>
<rect x="3" y="18" width="14" height="14"/>
</g>
</g>

<g  clip-path="url(#clip55)" 
>
<g fill="none" stroke="#333333" stroke-opacity="1" stroke-width="1" stroke-linecap="square" stroke-linejoin="bevel" transform="matrix(1,0,0,1,590,43)"
font-family="Arial" font-size="12" font-weight="400" font-style="normal" 
>
<text fill="#333333" fill-opacity="1" stroke="none" xml:space="preserve" x="22" y="29" font-family="Arial" font-size="12" font-weight="400" font-style="normal" 
 >Men</text>
</g>
</g>

<g  clip-path="url(#clip55)" 
>
<g fill="#ffffff" fill-opacity="1" stroke="none" transform="matrix(1,0,0,1,590,43)"
font-family="Arial" font-size="12" font-weight="400" font-style="normal" 
>
<rect x="3" y="38" width="14" height="14"/>
</g>
</g>

<g  clip-path="url(#clip55)" 
>
<g fill="#000000" fill-opacity="1" stroke="none" transform="matrix(1,0,0,1,590,43)"
font-family="Arial" font-size="12" font-weight="400" font-style="normal" 
>
<rect x="3" y="38" width="14" height="14"/>
</g>
</g>

<g  clip-path="url(#clip55)" 
>
<g fill="none" stroke="#333333" stroke-opacity="1" stroke-width="1" stroke-linecap="square" stroke-linejoin="bevel" transform="matrix(1,0,0,1,590,43)"
font-family="Arial" font-size="12" font-weight="400" font-style="normal" 
>
<text fill="#333333" fill-opacity="1" stroke="none" xml:space="preserve" x="22" y="49" font-family="Arial" font-size="12" font-weight="400" font-style="normal" 
 >Total</text>
</g>
</g>

<g  clip-path="url(#clip55)" 
>
<g fill="#ffffff" fill-opacity="1" stroke="none" transform="matrix(1,0,0,1,590,43)"
font-family="Arial" font-size="12" font-weight="400" font-style="normal" 
>
<rect x="3" y="58" width="14" height="14"/>
</g>
</g>

<g  clip-path="url(#clip55)" 
>
<g fill="#59a14f" fill-opacity="1" stroke="none" transform="matrix(1,0,0,1,590,43)"
font-family="Arial" font-size="12" font-weight="400" font-style="normal" 
>
<rect x="3" y="58" width="14" height="14"/>
</g>
</g>

<g  clip-path="url(#clip55)" 
>
<g fill="none" stroke="#333333" stroke-opacity="1" stroke-width="1" stroke-linecap="square" stroke-linejoin="bevel" transform="matrix(1,0,0,1,590,43)"
font-family="Arial" font-size="12" font-weight="400" font-style="normal" 
>
<text fill="#333333" fill-opacity="1" stroke="none" xml:space="preserve" x="22" y="69" font-family="Arial" font-size="12" font-weight="400" font-style="normal" 
 >Women</text>
</g>
</g>

<g >
<g fill="none" stroke="#333333" stroke-opacity="1" stroke-width="1" stroke-linecap="square" stroke-linejoin="bevel" transform="matrix(1,0,0,1,590,43)"
font-family="Arial" font-size="12" font-weight="400" font-style="normal" 
>
</g>
</g>
</g>
</svg>
