<?xml version="1.0" encoding="UTF-8" standalone="no"?>
<svg width="193.146mm" height="149.49mm"
 xmlns="http://www.w3.org/2000/svg" xmlns:xlink="http://www.w3.org/1999/xlink"  version="1.2" baseProfile="tiny">
<title>college-line-chart-ratio</title>
<desc>Rendered by Tableau</desc>
<defs>
</defs>
<g fill="none" stroke="black" stroke-width="1" fill-rule="evenodd" stroke-linecap="square" stroke-linejoin="bevel" >

<g >
<g fill="#ffffff" fill-opacity="1" stroke="none" transform="matrix(1,0,0,1,0,0)"
font-family="Benton Sans Book" font-size="16" font-weight="400" font-style="normal" 
>
<rect x="0" y="0" width="730" height="565"/>
</g>
</g>

<g >
<g fill="#ffffff" fill-opacity="1" stroke="none" transform="matrix(1,0,0,1,0,0)"
font-family="Benton Sans Book" font-size="16" font-weight="400" font-style="normal" 
>
<rect x="0" y="43" width="580" height="522"/>
</g>
</g>

<clipPath id ="clip1" >
<rect x="-1" y="-1" height="57" width="527" transform="matrix(1,0,0,1,55,510)" />
</clipPath>
<g  clip-path="url(#clip1)" 
>
<g fill="none" stroke="#000000" stroke-opacity="1" stroke-width="1" stroke-linecap="square" stroke-linejoin="bevel" transform="matrix(1,0,0,1,55,510)"
font-family="Benton Sans Book" font-size="16" font-weight="400" font-style="normal" 
>
</g>
</g>

<g  clip-path="url(#clip1)" 
>
<g fill="none" stroke="#f5f5f5" stroke-opacity="1" stroke-width="1" stroke-linecap="butt" stroke-linejoin="bevel" transform="matrix(1,0,0,1,55,510)"
font-family="Benton Sans Book" font-size="16" font-weight="400" font-style="normal" 
>
<polyline fill="none" vector-effect="none" points="72,0 72,5 " />
<polyline fill="none" vector-effect="none" points="151,0 151,5 " />
<polyline fill="none" vector-effect="none" points="230,0 230,5 " />
<polyline fill="none" vector-effect="none" points="309,0 309,5 " />
<polyline fill="none" vector-effect="none" points="389,0 389,5 " />
<polyline fill="none" vector-effect="none" points="468,0 468,5 " />
</g>
</g>

<g  clip-path="url(#clip1)" 
>
<g fill="none" stroke="#f5f5f5" stroke-opacity="1" stroke-width="1" stroke-linecap="butt" stroke-linejoin="bevel" transform="matrix(1,0,0,1,55,510)"
font-family="Benton Sans Book" font-size="16" font-weight="400" font-style="normal" 
>
<polyline fill="none" vector-effect="none" points="9,0 9,2 " />
<polyline fill="none" vector-effect="none" points="25,0 25,2 " />
<polyline fill="none" vector-effect="none" points="41,0 41,2 " />
<polyline fill="none" vector-effect="none" points="56,0 56,2 " />
<polyline fill="none" vector-effect="none" points="88,0 88,2 " />
<polyline fill="none" vector-effect="none" points="104,0 104,2 " />
<polyline fill="none" vector-effect="none" points="120,0 120,2 " />
<polyline fill="none" vector-effect="none" points="135,0 135,2 " />
<polyline fill="none" vector-effect="none" points="167,0 167,2 " />
<polyline fill="none" vector-effect="none" points="183,0 183,2 " />
<polyline fill="none" vector-effect="none" points="199,0 199,2 " />
<polyline fill="none" vector-effect="none" points="215,0 215,2 " />
<polyline fill="none" vector-effect="none" points="246,0 246,2 " />
<polyline fill="none" vector-effect="none" points="262,0 262,2 " />
<polyline fill="none" vector-effect="none" points="278,0 278,2 " />
<polyline fill="none" vector-effect="none" points="294,0 294,2 " />
<polyline fill="none" vector-effect="none" points="325,0 325,2 " />
<polyline fill="none" vector-effect="none" points="341,0 341,2 " />
<polyline fill="none" vector-effect="none" points="357,0 357,2 " />
<polyline fill="none" vector-effect="none" points="373,0 373,2 " />
<polyline fill="none" vector-effect="none" points="404,0 404,2 " />
<polyline fill="none" vector-effect="none" points="420,0 420,2 " />
<polyline fill="none" vector-effect="none" points="436,0 436,2 " />
<polyline fill="none" vector-effect="none" points="452,0 452,2 " />
<polyline fill="none" vector-effect="none" points="483,0 483,2 " />
<polyline fill="none" vector-effect="none" points="499,0 499,2 " />
<polyline fill="none" vector-effect="none" points="515,0 515,2 " />
</g>
</g>

<g  clip-path="url(#clip1)" 
>
<g fill="none" stroke="#666666" stroke-opacity="1" stroke-width="1" stroke-linecap="square" stroke-linejoin="bevel" transform="matrix(1,0,0,1,55,510)"
font-family="Arial" font-size="12" font-weight="400" font-style="normal" 
>
<text fill="#666666" fill-opacity="1" stroke="none" xml:space="preserve" x="59.1563" y="18" font-family="Arial" font-size="12" font-weight="400" font-style="normal" 
 >1996</text>
</g>
</g>

<g  clip-path="url(#clip1)" 
>
<g fill="none" stroke="#666666" stroke-opacity="1" stroke-width="1" stroke-linecap="square" stroke-linejoin="bevel" transform="matrix(1,0,0,1,55,510)"
font-family="Arial" font-size="12" font-weight="400" font-style="normal" 
>
<text fill="#666666" fill-opacity="1" stroke="none" xml:space="preserve" x="138.656" y="18" font-family="Arial" font-size="12" font-weight="400" font-style="normal" 
 >2001</text>
</g>
</g>

<g  clip-path="url(#clip1)" 
>
<g fill="none" stroke="#666666" stroke-opacity="1" stroke-width="1" stroke-linecap="square" stroke-linejoin="bevel" transform="matrix(1,0,0,1,55,510)"
font-family="Arial" font-size="12" font-weight="400" font-style="normal" 
>
<text fill="#666666" fill-opacity="1" stroke="none" xml:space="preserve" x="217.656" y="18" font-family="Arial" font-size="12" font-weight="400" font-style="normal" 
 >2006</text>
</g>
</g>

<g  clip-path="url(#clip1)" 
>
<g fill="none" stroke="#666666" stroke-opacity="1" stroke-width="1" stroke-linecap="square" stroke-linejoin="bevel" transform="matrix(1,0,0,1,55,510)"
font-family="Arial" font-size="12" font-weight="400" font-style="normal" 
>
<text fill="#666666" fill-opacity="1" stroke="none" xml:space="preserve" x="296.656" y="18" font-family="Arial" font-size="12" font-weight="400" font-style="normal" 
 >2011</text>
</g>
</g>

<g  clip-path="url(#clip1)" 
>
<g fill="none" stroke="#666666" stroke-opacity="1" stroke-width="1" stroke-linecap="square" stroke-linejoin="bevel" transform="matrix(1,0,0,1,55,510)"
font-family="Arial" font-size="12" font-weight="400" font-style="normal" 
>
<text fill="#666666" fill-opacity="1" stroke="none" xml:space="preserve" x="375.656" y="18" font-family="Arial" font-size="12" font-weight="400" font-style="normal" 
 >2016</text>
</g>
</g>

<g  clip-path="url(#clip1)" 
>
<g fill="none" stroke="#666666" stroke-opacity="1" stroke-width="1" stroke-linecap="square" stroke-linejoin="bevel" transform="matrix(1,0,0,1,55,510)"
font-family="Arial" font-size="12" font-weight="400" font-style="normal" 
>
<text fill="#666666" fill-opacity="1" stroke="none" xml:space="preserve" x="454.656" y="18" font-family="Arial" font-size="12" font-weight="400" font-style="normal" 
 >2021</text>
</g>
</g>

<g  clip-path="url(#clip1)" 
>
<g fill="none" stroke="#333333" stroke-opacity="1" stroke-width="1" stroke-linecap="square" stroke-linejoin="bevel" transform="matrix(1,0,0,1,55,510)"
font-family="Arial" font-size="12" font-weight="400" font-style="normal" 
>
<text fill="#333333" fill-opacity="1" stroke="none" xml:space="preserve" x="228.766" y="45" font-family="Arial" font-size="12" font-weight="400" font-style="normal" 
 >Year of Year</text>
</g>
</g>

<g >
<g fill="none" stroke="#333333" stroke-opacity="1" stroke-width="1" stroke-linecap="square" stroke-linejoin="bevel" transform="matrix(1,0,0,1,55,510)"
font-family="Arial" font-size="12" font-weight="400" font-style="normal" 
>
</g>
</g>

<clipPath id ="clip2" >
<rect x="-1" y="-1" height="469" width="57" transform="matrix(1,0,0,1,0,43)" />
</clipPath>
<g  clip-path="url(#clip2)" 
>
<g fill="none" stroke="#333333" stroke-opacity="1" stroke-width="1" stroke-linecap="square" stroke-linejoin="bevel" transform="matrix(1,0,0,1,0,43)"
font-family="Arial" font-size="12" font-weight="400" font-style="normal" 
>
</g>
</g>

<g  clip-path="url(#clip2)" 
>
<g fill="none" stroke="#f5f5f5" stroke-opacity="1" stroke-width="1" stroke-linecap="butt" stroke-linejoin="bevel" transform="matrix(1,0,0,1,0,43)"
font-family="Arial" font-size="12" font-weight="400" font-style="normal" 
>
<polyline fill="none" vector-effect="none" points="50,420 55,420 " />
<polyline fill="none" vector-effect="none" points="50,232 55,232 " />
<polyline fill="none" vector-effect="none" points="50,61 55,61 " />
</g>
</g>

<g  clip-path="url(#clip2)" 
>
<g fill="none" stroke="#666666" stroke-opacity="1" stroke-width="1" stroke-linecap="square" stroke-linejoin="bevel" transform="matrix(1,0,0,1,0,43)"
font-family="Arial" font-size="12" font-weight="400" font-style="normal" 
>
<text fill="#666666" fill-opacity="1" stroke="none" xml:space="preserve" x="31.3281" y="424" font-family="Arial" font-size="12" font-weight="400" font-style="normal" 
 >0.9</text>
</g>
</g>

<g  clip-path="url(#clip2)" 
>
<g fill="none" stroke="#666666" stroke-opacity="1" stroke-width="1" stroke-linecap="square" stroke-linejoin="bevel" transform="matrix(1,0,0,1,0,43)"
font-family="Arial" font-size="12" font-weight="400" font-style="normal" 
>
<text fill="#666666" fill-opacity="1" stroke="none" xml:space="preserve" x="41.3281" y="236" font-family="Arial" font-size="12" font-weight="400" font-style="normal" 
 >1</text>
</g>
</g>

<g  clip-path="url(#clip2)" 
>
<g fill="none" stroke="#666666" stroke-opacity="1" stroke-width="1" stroke-linecap="square" stroke-linejoin="bevel" transform="matrix(1,0,0,1,0,43)"
font-family="Arial" font-size="12" font-weight="400" font-style="normal" 
>
<text fill="#666666" fill-opacity="1" stroke="none" xml:space="preserve" x="31.3281" y="65" font-family="Arial" font-size="12" font-weight="400" font-style="normal" 
 >1.1</text>
</g>
</g>

<g  clip-path="url(#clip2)" 
>
<g fill="none" stroke="#666666" stroke-opacity="1" stroke-width="1" stroke-linecap="square" stroke-linejoin="bevel" transform="matrix(1,0,0,1,0,43)"
font-family="Arial" font-size="12" font-weight="400" font-style="normal" 
>
</g>
</g>

<g  clip-path="url(#clip2)" 
>
<g fill="none" stroke="#333333" stroke-opacity="1" stroke-width="1" stroke-linecap="square" stroke-linejoin="bevel" transform="matrix(0,-1,1,0,17.8594,318.828)"
font-family="Arial" font-size="12" font-weight="400" font-style="normal" 
>
<text fill="#333333" fill-opacity="1" stroke="none" xml:space="preserve" x="0" y="0" font-family="Arial" font-size="12" font-weight="400" font-style="normal" 
 >Log Group/Total</text>
</g>
</g>

<g  clip-path="url(#clip2)" 
>
<g fill="none" stroke="#666666" stroke-opacity="1" stroke-width="1" stroke-linecap="square" stroke-linejoin="bevel" transform="matrix(1,0,0,1,0,43)"
font-family="Arial" font-size="12" font-weight="400" font-style="normal" 
>
</g>
</g>

<g >
<g fill="none" stroke="#666666" stroke-opacity="1" stroke-width="1" stroke-linecap="square" stroke-linejoin="bevel" transform="matrix(1,0,0,1,0,43)"
font-family="Arial" font-size="12" font-weight="400" font-style="normal" 
>
</g>
</g>

<g  clip-path="url(#clip2)" 
>
<g fill="none" stroke="#666666" stroke-opacity="1" stroke-width="1" stroke-linecap="square" stroke-linejoin="bevel" transform="matrix(1,0,0,1,55,43)"
font-family="Arial" font-size="12" font-weight="400" font-style="normal" 
>
</g>
</g>

<clipPath id ="clip3" >
<rect x="0" y="0" height="468" width="526" transform="matrix(1,0,0,1,55,43)" />
</clipPath>
<g  clip-path="url(#clip3)" 
>
<g fill="none" stroke="#666666" stroke-opacity="1" stroke-width="1" stroke-linecap="square" stroke-linejoin="bevel" transform="matrix(1,0,0,1,55,43)"
font-family="Arial" font-size="12" font-weight="400" font-style="normal" 
>
</g>
</g>

<clipPath id ="clip4" >
<rect x="0" y="0" height="468" width="526" transform="matrix(1,0,0,1,55,43)" />
</clipPath>
<g  clip-path="url(#clip4)" 
>
<g fill="none" stroke="#666666" stroke-opacity="1" stroke-width="1" stroke-linecap="square" stroke-linejoin="bevel" transform="matrix(1,0,0,1,55,43)"
font-family="Arial" font-size="12" font-weight="400" font-style="normal" 
>
</g>
</g>

<g  clip-path="url(#clip4)" 
>
<g fill="#ffffff" fill-opacity="1" stroke="none" transform="matrix(1,0,0,1,55,43)"
font-family="Arial" font-size="12" font-weight="400" font-style="normal" 
>
<rect x="0" y="0" width="526" height="468"/>
</g>
</g>

<g  clip-path="url(#clip4)" 
>
<g fill="#ffffff" fill-opacity="1" stroke="none" transform="matrix(1,0,0,1,55,43)"
font-family="Arial" font-size="12" font-weight="400" font-style="normal" 
>
<rect x="0" y="0" width="526" height="468"/>
</g>
</g>

<clipPath id ="clip5" >
<rect x="0" y="0" height="468" width="526" transform="matrix(1,0,0,1,55,43)" />
</clipPath>
<g  clip-path="url(#clip5)" 
>
<g fill="none" stroke="#666666" stroke-opacity="1" stroke-width="1" stroke-linecap="square" stroke-linejoin="bevel" transform="matrix(1,0,0,1,55,43)"
font-family="Arial" font-size="12" font-weight="400" font-style="normal" 
>
</g>
</g>

<g  clip-path="url(#clip5)" 
>
<g fill="#ffffff" fill-opacity="1" stroke="none" transform="matrix(1,0,0,1,55,43)"
font-family="Arial" font-size="12" font-weight="400" font-style="normal" 
>
<rect x="0" y="0" width="526" height="468"/>
</g>
</g>

<clipPath id ="clip6" >
<rect x="0" y="0" height="468" width="526" transform="matrix(1,0,0,1,55,43)" />
</clipPath>
<g  clip-path="url(#clip6)" 
>
<g fill="none" stroke="#666666" stroke-opacity="1" stroke-width="1" stroke-linecap="square" stroke-linejoin="bevel" transform="matrix(1,0,0,1,55,43)"
font-family="Arial" font-size="12" font-weight="400" font-style="normal" 
>
</g>
</g>

<clipPath id ="clip7" >
<rect x="0" y="0" height="468" width="526" transform="matrix(1,0,0,1,55,43)" />
</clipPath>
<g  clip-path="url(#clip7)" 
>
<g fill="none" stroke="#666666" stroke-opacity="1" stroke-width="1" stroke-linecap="square" stroke-linejoin="bevel" transform="matrix(1,0,0,1,55,43)"
font-family="Arial" font-size="12" font-weight="400" font-style="normal" 
>
</g>
</g>

<clipPath id ="clip8" >
<rect x="0" y="0" height="468" width="526" transform="matrix(1,0,0,1,55,43)" />
</clipPath>
<g  clip-path="url(#clip8)" 
>
<g fill="none" stroke="#666666" stroke-opacity="1" stroke-width="1" stroke-linecap="square" stroke-linejoin="bevel" transform="matrix(1,0,0,1,55,43)"
font-family="Arial" font-size="12" font-weight="400" font-style="normal" 
>
</g>
</g>

<clipPath id ="clip9" >
<rect x="0" y="0" height="468" width="526" transform="matrix(1,0,0,1,55,43)" />
</clipPath>
<g  clip-path="url(#clip9)" 
>
<g fill="none" stroke="#666666" stroke-opacity="1" stroke-width="1" stroke-linecap="square" stroke-linejoin="bevel" transform="matrix(1,0,0,1,55,43)"
font-family="Arial" font-size="12" font-weight="400" font-style="normal" 
>
</g>
</g>

<g  clip-path="url(#clip9)" 
>
<g fill="#ffffff" fill-opacity="1" stroke="none" transform="matrix(1,0,0,1,55,43)"
font-family="Arial" font-size="12" font-weight="400" font-style="normal" 
>
<rect x="0" y="0" width="526" height="468"/>
</g>
</g>

<clipPath id ="clip10" >
<rect x="0" y="0" height="468" width="526" transform="matrix(1,0,0,1,55,43)" />
</clipPath>
<g  clip-path="url(#clip10)" 
>
<g fill="none" stroke="#666666" stroke-opacity="1" stroke-width="1" stroke-linecap="square" stroke-linejoin="bevel" transform="matrix(1,0,0,1,55,43)"
font-family="Arial" font-size="12" font-weight="400" font-style="normal" 
>
</g>
</g>

<clipPath id ="clip11" >
<rect x="0" y="0" height="467" width="525" transform="matrix(1,0,0,1,55,43)" />
</clipPath>
<g  clip-path="url(#clip11)" 
>
<g fill="none" stroke="#666666" stroke-opacity="1" stroke-width="1" stroke-linecap="square" stroke-linejoin="bevel" transform="matrix(1,0,0,1,55,43)"
font-family="Arial" font-size="12" font-weight="400" font-style="normal" 
>
</g>
</g>

<g  clip-path="url(#clip11)" 
>
<g fill="none" stroke="#f2f2f2" stroke-opacity="1" stroke-width="1" stroke-linecap="square" stroke-linejoin="bevel" transform="matrix(1,0,0,1,55,43)"
font-family="Arial" font-size="12" font-weight="400" font-style="normal" 
>
<polyline fill="none" vector-effect="none" points="0,420 525,420 " />
<polyline fill="none" vector-effect="none" points="0,232 525,232 " />
<polyline fill="none" vector-effect="none" points="0,61 525,61 " />
</g>
</g>

<clipPath id ="clip12" >
<rect x="0" y="0" height="468" width="526" transform="matrix(1,0,0,1,55,43)" />
</clipPath>
<g  clip-path="url(#clip12)" 
>
<g fill="none" stroke="#f2f2f2" stroke-opacity="1" stroke-width="1" stroke-linecap="square" stroke-linejoin="bevel" transform="matrix(1,0,0,1,55,43)"
font-family="Arial" font-size="12" font-weight="400" font-style="normal" 
>
</g>
</g>

<clipPath id ="clip13" >
<rect x="0" y="0" height="467" width="525" transform="matrix(1,0,0,1,55,43)" />
</clipPath>
<g  clip-path="url(#clip13)" 
>
<g fill="none" stroke="#f2f2f2" stroke-opacity="1" stroke-width="1" stroke-linecap="square" stroke-linejoin="bevel" transform="matrix(1,0,0,1,55,43)"
font-family="Arial" font-size="12" font-weight="400" font-style="normal" 
>
</g>
</g>

<clipPath id ="clip14" >
<rect x="0" y="0" height="468" width="526" transform="matrix(1,0,0,1,55,43)" />
</clipPath>
<g  clip-path="url(#clip14)" 
>
<g fill="none" stroke="#f2f2f2" stroke-opacity="1" stroke-width="1" stroke-linecap="square" stroke-linejoin="bevel" transform="matrix(1,0,0,1,55,43)"
font-family="Arial" font-size="12" font-weight="400" font-style="normal" 
>
</g>
</g>

<clipPath id ="clip15" >
<rect x="0" y="0" height="467" width="525" transform="matrix(1,0,0,1,55,43)" />
</clipPath>
<g  clip-path="url(#clip15)" 
>
<g fill="none" stroke="#f2f2f2" stroke-opacity="1" stroke-width="1" stroke-linecap="square" stroke-linejoin="bevel" transform="matrix(1,0,0,1,55,43)"
font-family="Arial" font-size="12" font-weight="400" font-style="normal" 
>
</g>
</g>

<clipPath id ="clip16" >
<rect x="0" y="0" height="468" width="526" transform="matrix(1,0,0,1,55,43)" />
</clipPath>
<g  clip-path="url(#clip16)" 
>
<g fill="none" stroke="#f2f2f2" stroke-opacity="1" stroke-width="1" stroke-linecap="square" stroke-linejoin="bevel" transform="matrix(1,0,0,1,55,43)"
font-family="Arial" font-size="12" font-weight="400" font-style="normal" 
>
</g>
</g>

<clipPath id ="clip17" >
<rect x="0" y="0" height="468" width="526" transform="matrix(1,0,0,1,55,43)" />
</clipPath>
<g  clip-path="url(#clip17)" 
>
<g fill="none" stroke="#f2f2f2" stroke-opacity="1" stroke-width="1" stroke-linecap="square" stroke-linejoin="bevel" transform="matrix(1,0,0,1,55,43)"
font-family="Arial" font-size="12" font-weight="400" font-style="normal" 
>
</g>
</g>

<clipPath id ="clip18" >
<rect x="0" y="0" height="467" width="525" transform="matrix(1,0,0,1,55,43)" />
</clipPath>
<g  clip-path="url(#clip18)" 
>
<g fill="none" stroke="#f2f2f2" stroke-opacity="1" stroke-width="1" stroke-linecap="square" stroke-linejoin="bevel" transform="matrix(1,0,0,1,55,43)"
font-family="Arial" font-size="12" font-weight="400" font-style="normal" 
>
</g>
</g>

<clipPath id ="clip19" >
<rect x="0" y="0" height="468" width="526" transform="matrix(1,0,0,1,55,43)" />
</clipPath>
<g  clip-path="url(#clip19)" 
>
<g fill="none" stroke="#f2f2f2" stroke-opacity="1" stroke-width="1" stroke-linecap="square" stroke-linejoin="bevel" transform="matrix(1,0,0,1,55,43)"
font-family="Arial" font-size="12" font-weight="400" font-style="normal" 
>
</g>
</g>

<clipPath id ="clip20" >
<rect x="0" y="0" height="467" width="525" transform="matrix(1,0,0,1,55,43)" />
</clipPath>
<g  clip-path="url(#clip20)" 
>
<g fill="none" stroke="#f2f2f2" stroke-opacity="1" stroke-width="1" stroke-linecap="square" stroke-linejoin="bevel" transform="matrix(1,0,0,1,55,43)"
font-family="Arial" font-size="12" font-weight="400" font-style="normal" 
>
</g>
</g>

<clipPath id ="clip21" >
<rect x="0" y="0" height="468" width="526" transform="matrix(1,0,0,1,55,43)" />
</clipPath>
<g  clip-path="url(#clip21)" 
>
<g fill="none" stroke="#f2f2f2" stroke-opacity="1" stroke-width="1" stroke-linecap="square" stroke-linejoin="bevel" transform="matrix(1,0,0,1,55,43)"
font-family="Arial" font-size="12" font-weight="400" font-style="normal" 
>
</g>
</g>

<clipPath id ="clip22" >
<rect x="0" y="0" height="467" width="525" transform="matrix(1,0,0,1,55,43)" />
</clipPath>
<g  clip-path="url(#clip22)" 
>
<g fill="none" stroke="#f2f2f2" stroke-opacity="1" stroke-width="1" stroke-linecap="square" stroke-linejoin="bevel" transform="matrix(1,0,0,1,55,43)"
font-family="Arial" font-size="12" font-weight="400" font-style="normal" 
>
</g>
</g>

<g  clip-path="url(#clip22)" 
>
<g fill="none" stroke="#59a14f" stroke-opacity="1" stroke-width="3" stroke-linecap="round" stroke-linejoin="round" transform="matrix(1,0,0,1,55,43)"
font-family="Arial" font-size="12" font-weight="400" font-style="normal" 
>
<polyline fill="none" vector-effect="none" points="25.7475,154.707 41.5542,195.797 57.3609,247.48 73.1677,108.101 89.0177,146.976 104.824,140 120.631,190.819 136.438,152.85 152.288,178.637 168.095,147.272 183.901,161.637 199.708,106.174 215.558,186.646 231.365,230.265 247.172,203.932 262.978,158.914 278.828,140.971 294.635,84.3565 310.442,131.172 326.249,100.226 342.099,166.373 357.905,123.921 373.712,147.182 389.519,177.389 405.369,103.678 421.176,176.914 436.982,138.257 452.789,135.815 468.639,22.9416 484.446,118.437 500.253,122.823 " />
</g>
</g>

<g  clip-path="url(#clip22)" 
>
<g fill="none" stroke="#f2f2f2" stroke-opacity="1" stroke-width="1" stroke-linecap="square" stroke-linejoin="bevel" transform="matrix(1,0,0,1,55,43)"
font-family="Arial" font-size="12" font-weight="400" font-style="normal" 
>
<path vector-effect="none" fill-rule="nonzero" d="M0,0"/>
</g>
</g>

<g  clip-path="url(#clip22)" 
>
<g fill="none" stroke="#000000" stroke-opacity="1" stroke-width="3" stroke-linecap="round" stroke-linejoin="round" transform="matrix(1,0,0,1,55,43)"
font-family="Arial" font-size="12" font-weight="400" font-style="normal" 
>
<polyline fill="none" vector-effect="none" points="25.7475,232.973 41.5542,232.973 57.3609,232.973 73.1677,232.973 89.0177,232.973 104.824,232.973 120.631,232.973 136.438,232.973 152.288,232.973 168.095,232.973 183.901,232.973 199.708,232.973 215.558,232.973 231.365,232.973 247.172,232.973 262.978,232.973 278.828,232.973 294.635,232.973 310.442,232.973 326.249,232.973 342.099,232.973 357.905,232.973 373.712,232.973 389.519,232.973 405.369,232.973 421.176,232.973 436.982,232.973 452.789,232.973 468.639,232.973 484.446,232.973 500.253,232.973 " />
</g>
</g>

<g  clip-path="url(#clip22)" 
>
<g fill="none" stroke="#f2f2f2" stroke-opacity="1" stroke-width="1" stroke-linecap="square" stroke-linejoin="bevel" transform="matrix(1,0,0,1,55,43)"
font-family="Arial" font-size="12" font-weight="400" font-style="normal" 
>
<path vector-effect="none" fill-rule="nonzero" d="M0,0"/>
</g>
</g>

<g  clip-path="url(#clip22)" 
>
<g fill="none" stroke="#4e79a7" stroke-opacity="1" stroke-width="3" stroke-linecap="round" stroke-linejoin="round" transform="matrix(1,0,0,1,55,43)"
font-family="Arial" font-size="12" font-weight="400" font-style="normal" 
>
<polyline fill="none" vector-effect="none" points="25.7475,317.816 41.5542,270.939 57.3609,212.86 73.1677,373.165 89.0177,328.941 104.824,322.426 120.631,276.145 136.438,331.724 152.288,289.012 168.095,320.106 183.901,310.194 199.708,381.067 215.558,288.584 231.365,235.686 247.172,262.495 262.978,304.796 278.828,340.773 294.635,377.895 310.442,332.594 326.249,370.523 342.099,299.331 357.905,351.902 373.712,323.089 389.519,292.993 405.369,389.828 421.176,290.847 436.982,350.214 452.789,332.696 468.639,444.734 484.446,377.105 500.253,347.247 " />
</g>
</g>

<g  clip-path="url(#clip22)" 
>
<g fill="none" stroke="#f2f2f2" stroke-opacity="1" stroke-width="1" stroke-linecap="square" stroke-linejoin="bevel" transform="matrix(1,0,0,1,55,43)"
font-family="Arial" font-size="12" font-weight="400" font-style="normal" 
>
<path vector-effect="none" fill-rule="nonzero" d="M0,0"/>
</g>
</g>

<clipPath id ="clip23" >
<rect x="0" y="0" height="468" width="526" transform="matrix(1,0,0,1,55,43)" />
</clipPath>
<g  clip-path="url(#clip23)" 
>
<g fill="none" stroke="#f2f2f2" stroke-opacity="1" stroke-width="1" stroke-linecap="square" stroke-linejoin="bevel" transform="matrix(1,0,0,1,55,43)"
font-family="Arial" font-size="12" font-weight="400" font-style="normal" 
>
</g>
</g>

<clipPath id ="clip24" >
<rect x="0" y="0" height="468" width="526" transform="matrix(1,0,0,1,55,43)" />
</clipPath>
<g  clip-path="url(#clip24)" 
>
<g fill="none" stroke="#f2f2f2" stroke-opacity="1" stroke-width="1" stroke-linecap="square" stroke-linejoin="bevel" transform="matrix(1,0,0,1,55,43)"
font-family="Arial" font-size="12" font-weight="400" font-style="normal" 
>
</g>
</g>

<clipPath id ="clip25" >
<rect x="0" y="0" height="467" width="525" transform="matrix(1,0,0,1,55,43)" />
</clipPath>
<g  clip-path="url(#clip25)" 
>
<g fill="none" stroke="#f2f2f2" stroke-opacity="1" stroke-width="1" stroke-linecap="square" stroke-linejoin="bevel" transform="matrix(1,0,0,1,55,43)"
font-family="Arial" font-size="12" font-weight="400" font-style="normal" 
>
</g>
</g>

<clipPath id ="clip26" >
<rect x="0" y="0" height="468" width="526" transform="matrix(1,0,0,1,55,43)" />
</clipPath>
<g  clip-path="url(#clip26)" 
>
<g fill="none" stroke="#f2f2f2" stroke-opacity="1" stroke-width="1" stroke-linecap="square" stroke-linejoin="bevel" transform="matrix(1,0,0,1,55,43)"
font-family="Arial" font-size="12" font-weight="400" font-style="normal" 
>
</g>
</g>

<clipPath id ="clip27" >
<rect x="0" y="0" height="467" width="525" transform="matrix(1,0,0,1,55,43)" />
</clipPath>
<g  clip-path="url(#clip27)" 
>
<g fill="none" stroke="#f2f2f2" stroke-opacity="1" stroke-width="1" stroke-linecap="square" stroke-linejoin="bevel" transform="matrix(1,0,0,1,55,43)"
font-family="Arial" font-size="12" font-weight="400" font-style="normal" 
>
</g>
</g>

<clipPath id ="clip28" >
<rect x="0" y="0" height="468" width="526" transform="matrix(1,0,0,1,55,43)" />
</clipPath>
<g  clip-path="url(#clip28)" 
>
<g fill="none" stroke="#f2f2f2" stroke-opacity="1" stroke-width="1" stroke-linecap="square" stroke-linejoin="bevel" transform="matrix(1,0,0,1,55,43)"
font-family="Arial" font-size="12" font-weight="400" font-style="normal" 
>
</g>
</g>

<clipPath id ="clip29" >
<rect x="0" y="0" height="467" width="525" transform="matrix(1,0,0,1,55,43)" />
</clipPath>
<g  clip-path="url(#clip29)" 
>
<g fill="none" stroke="#f2f2f2" stroke-opacity="1" stroke-width="1" stroke-linecap="square" stroke-linejoin="bevel" transform="matrix(1,0,0,1,55,43)"
font-family="Arial" font-size="12" font-weight="400" font-style="normal" 
>
</g>
</g>

<clipPath id ="clip30" >
<rect x="0" y="0" height="468" width="526" transform="matrix(1,0,0,1,55,43)" />
</clipPath>
<g  clip-path="url(#clip30)" 
>
<g fill="none" stroke="#f2f2f2" stroke-opacity="1" stroke-width="1" stroke-linecap="square" stroke-linejoin="bevel" transform="matrix(1,0,0,1,55,43)"
font-family="Arial" font-size="12" font-weight="400" font-style="normal" 
>
</g>
</g>

<clipPath id ="clip31" >
<rect x="0" y="0" height="468" width="526" transform="matrix(1,0,0,1,55,43)" />
</clipPath>
<g  clip-path="url(#clip31)" 
>
<g fill="none" stroke="#f2f2f2" stroke-opacity="1" stroke-width="1" stroke-linecap="square" stroke-linejoin="bevel" transform="matrix(1,0,0,1,55,43)"
font-family="Arial" font-size="12" font-weight="400" font-style="normal" 
>
</g>
</g>

<clipPath id ="clip32" >
<rect x="0" y="0" height="467" width="525" transform="matrix(1,0,0,1,55,43)" />
</clipPath>
<g  clip-path="url(#clip32)" 
>
<g fill="none" stroke="#f2f2f2" stroke-opacity="1" stroke-width="1" stroke-linecap="square" stroke-linejoin="bevel" transform="matrix(1,0,0,1,55,43)"
font-family="Arial" font-size="12" font-weight="400" font-style="normal" 
>
</g>
</g>

<clipPath id ="clip33" >
<rect x="0" y="0" height="468" width="526" transform="matrix(1,0,0,1,55,43)" />
</clipPath>
<g  clip-path="url(#clip33)" 
>
<g fill="none" stroke="#f2f2f2" stroke-opacity="1" stroke-width="1" stroke-linecap="square" stroke-linejoin="bevel" transform="matrix(1,0,0,1,55,43)"
font-family="Arial" font-size="12" font-weight="400" font-style="normal" 
>
</g>
</g>

<clipPath id ="clip34" >
<rect x="0" y="0" height="467" width="525" transform="matrix(1,0,0,1,55,43)" />
</clipPath>
<g  clip-path="url(#clip34)" 
>
<g fill="none" stroke="#f2f2f2" stroke-opacity="1" stroke-width="1" stroke-linecap="square" stroke-linejoin="bevel" transform="matrix(1,0,0,1,55,43)"
font-family="Arial" font-size="12" font-weight="400" font-style="normal" 
>
</g>
</g>

<clipPath id ="clip35" >
<rect x="0" y="0" height="468" width="526" transform="matrix(1,0,0,1,55,43)" />
</clipPath>
<g  clip-path="url(#clip35)" 
>
<g fill="none" stroke="#f2f2f2" stroke-opacity="1" stroke-width="1" stroke-linecap="square" stroke-linejoin="bevel" transform="matrix(1,0,0,1,55,43)"
font-family="Arial" font-size="12" font-weight="400" font-style="normal" 
>
</g>
</g>

<clipPath id ="clip36" >
<rect x="0" y="0" height="467" width="525" transform="matrix(1,0,0,1,55,43)" />
</clipPath>
<g  clip-path="url(#clip36)" 
>
<g fill="none" stroke="#f2f2f2" stroke-opacity="1" stroke-width="1" stroke-linecap="square" stroke-linejoin="bevel" transform="matrix(1,0,0,1,55,43)"
font-family="Arial" font-size="12" font-weight="400" font-style="normal" 
>
</g>
</g>

<clipPath id ="clip37" >
<rect x="0" y="0" height="468" width="526" transform="matrix(1,0,0,1,55,43)" />
</clipPath>
<g  clip-path="url(#clip37)" 
>
<g fill="none" stroke="#f2f2f2" stroke-opacity="1" stroke-width="1" stroke-linecap="square" stroke-linejoin="bevel" transform="matrix(1,0,0,1,55,43)"
font-family="Arial" font-size="12" font-weight="400" font-style="normal" 
>
</g>
</g>

<clipPath id ="clip38" >
<rect x="0" y="0" height="468" width="526" transform="matrix(1,0,0,1,55,43)" />
</clipPath>
<g  clip-path="url(#clip38)" 
>
<g fill="none" stroke="#f2f2f2" stroke-opacity="1" stroke-width="1" stroke-linecap="square" stroke-linejoin="bevel" transform="matrix(1,0,0,1,55,43)"
font-family="Arial" font-size="12" font-weight="400" font-style="normal" 
>
</g>
</g>

<clipPath id ="clip39" >
<rect x="0" y="0" height="467" width="525" transform="matrix(1,0,0,1,55,43)" />
</clipPath>
<g  clip-path="url(#clip39)" 
>
<g fill="none" stroke="#f2f2f2" stroke-opacity="1" stroke-width="1" stroke-linecap="square" stroke-linejoin="bevel" transform="matrix(1,0,0,1,55,43)"
font-family="Arial" font-size="12" font-weight="400" font-style="normal" 
>
</g>
</g>

<clipPath id ="clip40" >
<rect x="0" y="0" height="468" width="526" transform="matrix(1,0,0,1,55,43)" />
</clipPath>
<g  clip-path="url(#clip40)" 
>
<g fill="none" stroke="#f2f2f2" stroke-opacity="1" stroke-width="1" stroke-linecap="square" stroke-linejoin="bevel" transform="matrix(1,0,0,1,55,43)"
font-family="Arial" font-size="12" font-weight="400" font-style="normal" 
>
</g>
</g>

<clipPath id ="clip41" >
<rect x="0" y="0" height="467" width="525" transform="matrix(1,0,0,1,55,43)" />
</clipPath>
<g  clip-path="url(#clip41)" 
>
<g fill="none" stroke="#f2f2f2" stroke-opacity="1" stroke-width="1" stroke-linecap="square" stroke-linejoin="bevel" transform="matrix(1,0,0,1,55,43)"
font-family="Arial" font-size="12" font-weight="400" font-style="normal" 
>
</g>
</g>

<clipPath id ="clip42" >
<rect x="0" y="0" height="468" width="526" transform="matrix(1,0,0,1,55,43)" />
</clipPath>
<g  clip-path="url(#clip42)" 
>
<g fill="none" stroke="#f2f2f2" stroke-opacity="1" stroke-width="1" stroke-linecap="square" stroke-linejoin="bevel" transform="matrix(1,0,0,1,55,43)"
font-family="Arial" font-size="12" font-weight="400" font-style="normal" 
>
</g>
</g>

<clipPath id ="clip43" >
<rect x="0" y="0" height="467" width="525" transform="matrix(1,0,0,1,55,43)" />
</clipPath>
<g  clip-path="url(#clip43)" 
>
<g fill="none" stroke="#f2f2f2" stroke-opacity="1" stroke-width="1" stroke-linecap="square" stroke-linejoin="bevel" transform="matrix(1,0,0,1,55,43)"
font-family="Arial" font-size="12" font-weight="400" font-style="normal" 
>
</g>
</g>

<clipPath id ="clip44" >
<rect x="0" y="0" height="468" width="526" transform="matrix(1,0,0,1,55,43)" />
</clipPath>
<g  clip-path="url(#clip44)" 
>
<g fill="none" stroke="#f2f2f2" stroke-opacity="1" stroke-width="1" stroke-linecap="square" stroke-linejoin="bevel" transform="matrix(1,0,0,1,55,43)"
font-family="Arial" font-size="12" font-weight="400" font-style="normal" 
>
</g>
</g>

<clipPath id ="clip45" >
<rect x="0" y="0" height="468" width="526" transform="matrix(1,0,0,1,55,43)" />
</clipPath>
<g  clip-path="url(#clip45)" 
>
<g fill="none" stroke="#f2f2f2" stroke-opacity="1" stroke-width="1" stroke-linecap="square" stroke-linejoin="bevel" transform="matrix(1,0,0,1,55,43)"
font-family="Arial" font-size="12" font-weight="400" font-style="normal" 
>
</g>
</g>

<clipPath id ="clip46" >
<rect x="0" y="0" height="467" width="525" transform="matrix(1,0,0,1,55,43)" />
</clipPath>
<g  clip-path="url(#clip46)" 
>
<g fill="none" stroke="#f2f2f2" stroke-opacity="1" stroke-width="1" stroke-linecap="square" stroke-linejoin="bevel" transform="matrix(1,0,0,1,55,43)"
font-family="Arial" font-size="12" font-weight="400" font-style="normal" 
>
</g>
</g>

<clipPath id ="clip47" >
<rect x="0" y="0" height="468" width="526" transform="matrix(1,0,0,1,55,43)" />
</clipPath>
<g  clip-path="url(#clip47)" 
>
<g fill="none" stroke="#f2f2f2" stroke-opacity="1" stroke-width="1" stroke-linecap="square" stroke-linejoin="bevel" transform="matrix(1,0,0,1,55,43)"
font-family="Arial" font-size="12" font-weight="400" font-style="normal" 
>
</g>
</g>

<clipPath id ="clip48" >
<rect x="0" y="0" height="467" width="525" transform="matrix(1,0,0,1,55,43)" />
</clipPath>
<g  clip-path="url(#clip48)" 
>
<g fill="none" stroke="#f2f2f2" stroke-opacity="1" stroke-width="1" stroke-linecap="square" stroke-linejoin="bevel" transform="matrix(1,0,0,1,55,43)"
font-family="Arial" font-size="12" font-weight="400" font-style="normal" 
>
</g>
</g>

<clipPath id ="clip49" >
<rect x="0" y="0" height="468" width="526" transform="matrix(1,0,0,1,55,43)" />
</clipPath>
<g  clip-path="url(#clip49)" 
>
<g fill="none" stroke="#f2f2f2" stroke-opacity="1" stroke-width="1" stroke-linecap="square" stroke-linejoin="bevel" transform="matrix(1,0,0,1,55,43)"
font-family="Arial" font-size="12" font-weight="400" font-style="normal" 
>
</g>
</g>

<clipPath id ="clip50" >
<rect x="0" y="0" height="467" width="525" transform="matrix(1,0,0,1,55,43)" />
</clipPath>
<g  clip-path="url(#clip50)" 
>
<g fill="none" stroke="#f2f2f2" stroke-opacity="1" stroke-width="1" stroke-linecap="square" stroke-linejoin="bevel" transform="matrix(1,0,0,1,55,43)"
font-family="Arial" font-size="12" font-weight="400" font-style="normal" 
>
</g>
</g>

<clipPath id ="clip51" >
<rect x="0" y="0" height="468" width="526" transform="matrix(1,0,0,1,55,43)" />
</clipPath>
<g  clip-path="url(#clip51)" 
>
<g fill="none" stroke="#f2f2f2" stroke-opacity="1" stroke-width="1" stroke-linecap="square" stroke-linejoin="bevel" transform="matrix(1,0,0,1,55,43)"
font-family="Arial" font-size="12" font-weight="400" font-style="normal" 
>
</g>
</g>

<clipPath id ="clip52" >
<rect x="0" y="0" height="468" width="526" transform="matrix(1,0,0,1,55,43)" />
</clipPath>
<g  clip-path="url(#clip52)" 
>
<g fill="none" stroke="#f2f2f2" stroke-opacity="1" stroke-width="1" stroke-linecap="square" stroke-linejoin="bevel" transform="matrix(1,0,0,1,55,43)"
font-family="Arial" font-size="12" font-weight="400" font-style="normal" 
>
</g>
</g>

<clipPath id ="clip53" >
<rect x="0" y="0" height="468" width="526" transform="matrix(1,0,0,1,55,43)" />
</clipPath>
<g  clip-path="url(#clip53)" 
>
<g fill="none" stroke="#f2f2f2" stroke-opacity="1" stroke-width="1" stroke-linecap="square" stroke-linejoin="bevel" transform="matrix(1,0,0,1,55,43)"
font-family="Arial" font-size="12" font-weight="400" font-style="normal" 
>
</g>
</g>

<g  clip-path="url(#clip53)" 
>
<g fill="none" stroke="#f5f5f5" stroke-opacity="1" stroke-width="1" stroke-linecap="square" stroke-linejoin="bevel" transform="matrix(1,0,0,1,55,43)"
font-family="Arial" font-size="12" font-weight="400" font-style="normal" 
>
<polyline fill="none" vector-effect="none" points="0,467 525,467 " />
<polyline fill="none" vector-effect="none" points="0,0 0,467 " />
</g>
</g>

<clipPath id ="clip54" >
<rect x="0" y="0" height="468" width="526" transform="matrix(1,0,0,1,55,43)" />
</clipPath>
<g  clip-path="url(#clip54)" 
>
<g fill="none" stroke="#f5f5f5" stroke-opacity="1" stroke-width="1" stroke-linecap="square" stroke-linejoin="bevel" transform="matrix(1,0,0,1,55,43)"
font-family="Arial" font-size="12" font-weight="400" font-style="normal" 
>
</g>
</g>

<g >
<g fill="none" stroke="#f5f5f5" stroke-opacity="1" stroke-width="1" stroke-linecap="square" stroke-linejoin="bevel" transform="matrix(1,0,0,1,55,43)"
font-family="Arial" font-size="12" font-weight="400" font-style="normal" 
>
</g>
</g>

<g >
<g fill="none" stroke="#333333" stroke-opacity="1" stroke-width="1" stroke-linecap="square" stroke-linejoin="bevel" transform="matrix(1,0,0,1,0,0)"
font-family="Arial" font-size="20" font-weight="400" font-style="normal" 
>
<text fill="#333333" fill-opacity="1" stroke="none" xml:space="preserve" x="4" y="27" font-family="Arial" font-size="20" font-weight="400" font-style="normal" 
 >Ratios of Groups to Total (log scale)</text>
</g>
</g>

<clipPath id ="clip55" >
<rect x="0" y="0" height="78" width="140" transform="matrix(1,0,0,1,590,43)" />
</clipPath>
<g  clip-path="url(#clip55)" 
>
<g fill="none" stroke="#333333" stroke-opacity="1" stroke-width="1" stroke-linecap="square" stroke-linejoin="bevel" transform="matrix(1,0,0,1,590,43)"
font-family="Arial" font-size="20" font-weight="400" font-style="normal" 
>
</g>
</g>

<g  clip-path="url(#clip55)" 
>
<g fill="#ffffff" fill-opacity="1" stroke="none" transform="matrix(1,0,0,1,590,43)"
font-family="Arial" font-size="20" font-weight="400" font-style="normal" 
>
<rect x="0" y="0" width="140" height="78"/>
</g>
</g>

<g  clip-path="url(#clip55)" 
>
<g fill="none" stroke="#333333" stroke-opacity="1" stroke-width="1" stroke-linecap="square" stroke-linejoin="bevel" transform="matrix(1,0,0,1,590,43)"
font-family="Arial" font-size="12" font-weight="400" font-style="normal" 
>
<text fill="#333333" fill-opacity="1" stroke="none" xml:space="preserve" x="1" y="13" font-family="Arial" font-size="12" font-weight="400" font-style="normal" 
 >Measure Names</text>
</g>
</g>

<g  clip-path="url(#clip55)" 
>
<g fill="#ffffff" fill-opacity="1" stroke="none" transform="matrix(1,0,0,1,590,43)"
font-family="Arial" font-size="12" font-weight="400" font-style="normal" 
>
<rect x="3" y="18" width="14" height="14"/>
</g>
</g>

<g  clip-path="url(#clip55)" 
>
<g fill="#4e79a7" fill-opacity="1" stroke="none" transform="matrix(1,0,0,1,590,43)"
font-family="Arial" font-size="12" font-weight="400" font-style="normal" 
>
<rect x="3" y="18" width="14" height="14"/>
</g>
</g>

<g  clip-path="url(#clip55)" 
>
<g fill="none" stroke="#333333" stroke-opacity="1" stroke-width="1" stroke-linecap="square" stroke-linejoin="bevel" transform="matrix(1,0,0,1,590,43)"
font-family="Arial" font-size="12" font-weight="400" font-style="normal" 
>
<text fill="#333333" fill-opacity="1" stroke="none" xml:space="preserve" x="22" y="29" font-family="Arial" font-size="12" font-weight="400" font-style="normal" 
 >Men/Total</text>
</g>
</g>

<g  clip-path="url(#clip55)" 
>
<g fill="#ffffff" fill-opacity="1" stroke="none" transform="matrix(1,0,0,1,590,43)"
font-family="Arial" font-size="12" font-weight="400" font-style="normal" 
>
<rect x="3" y="38" width="14" height="14"/>
</g>
</g>

<g  clip-path="url(#clip55)" 
>
<g fill="#000000" fill-opacity="1" stroke="none" transform="matrix(1,0,0,1,590,43)"
font-family="Arial" font-size="12" font-weight="400" font-style="normal" 
>
<rect x="3" y="38" width="14" height="14"/>
</g>
</g>

<g  clip-path="url(#clip55)" 
>
<g fill="none" stroke="#333333" stroke-opacity="1" stroke-width="1" stroke-linecap="square" stroke-linejoin="bevel" transform="matrix(1,0,0,1,590,43)"
font-family="Arial" font-size="12" font-weight="400" font-style="normal" 
>
<text fill="#333333" fill-opacity="1" stroke="none" xml:space="preserve" x="22" y="49" font-family="Arial" font-size="12" font-weight="400" font-style="normal" 
 >Total/Total</text>
</g>
</g>

<g  clip-path="url(#clip55)" 
>
<g fill="#ffffff" fill-opacity="1" stroke="none" transform="matrix(1,0,0,1,590,43)"
font-family="Arial" font-size="12" font-weight="400" font-style="normal" 
>
<rect x="3" y="58" width="14" height="14"/>
</g>
</g>

<g  clip-path="url(#clip55)" 
>
<g fill="#59a14f" fill-opacity="1" stroke="none" transform="matrix(1,0,0,1,590,43)"
font-family="Arial" font-size="12" font-weight="400" font-style="normal" 
>
<rect x="3" y="58" width="14" height="14"/>
</g>
</g>

<g  clip-path="url(#clip55)" 
>
<g fill="none" stroke="#333333" stroke-opacity="1" stroke-width="1" stroke-linecap="square" stroke-linejoin="bevel" transform="matrix(1,0,0,1,590,43)"
font-family="Arial" font-size="12" font-weight="400" font-style="normal" 
>
<text fill="#333333" fill-opacity="1" stroke="none" xml:space="preserve" x="22" y="69" font-family="Arial" font-size="12" font-weight="400" font-style="normal" 
 >Women/Total</text>
</g>
</g>

<g >
<g fill="none" stroke="#333333" stroke-opacity="1" stroke-width="1" stroke-linecap="square" stroke-linejoin="bevel" transform="matrix(1,0,0,1,590,43)"
font-family="Arial" font-size="12" font-weight="400" font-style="normal" 
>
</g>
</g>
</g>
</svg>
