<?xml version="1.0" encoding="UTF-8" standalone="no"?>
<svg width="293.158mm" height="196.85mm"
 xmlns="http://www.w3.org/2000/svg" xmlns:xlink="http://www.w3.org/1999/xlink"  version="1.2" baseProfile="tiny">
<title>difference</title>
<desc>Rendered by Tableau</desc>
<defs>
</defs>
<g fill="none" stroke="black" stroke-width="1" fill-rule="evenodd" stroke-linecap="square" stroke-linejoin="bevel" >

<g >
<g fill="#ffffff" fill-opacity="1" stroke="none" transform="matrix(1,0,0,1,0,0)"
font-family="Benton Sans Book" font-size="16" font-weight="400" font-style="normal" 
>
<rect x="0" y="0" width="1108" height="744"/>
</g>
</g>

<g >
<g fill="#ffffff" fill-opacity="1" stroke="none" transform="matrix(1,0,0,1,0,0)"
font-family="Benton Sans Book" font-size="16" font-weight="400" font-style="normal" 
>
<rect x="0" y="43" width="958" height="701"/>
</g>
</g>

<clipPath id ="clip1" >
<rect x="-1" y="-1" height="57" width="901" transform="matrix(1,0,0,1,59,689)" />
</clipPath>
<g  clip-path="url(#clip1)" 
>
<g fill="none" stroke="#000000" stroke-opacity="1" stroke-width="1" stroke-linecap="square" stroke-linejoin="bevel" transform="matrix(1,0,0,1,59,689)"
font-family="Benton Sans Book" font-size="16" font-weight="400" font-style="normal" 
>
</g>
</g>

<g  clip-path="url(#clip1)" 
>
<g fill="none" stroke="#f5f5f5" stroke-opacity="1" stroke-width="1" stroke-linecap="butt" stroke-linejoin="bevel" transform="matrix(1,0,0,1,59,689)"
font-family="Benton Sans Book" font-size="16" font-weight="400" font-style="normal" 
>
<polyline fill="none" vector-effect="none" points="123,0 123,5 " />
<polyline fill="none" vector-effect="none" points="259,0 259,5 " />
<polyline fill="none" vector-effect="none" points="395,0 395,5 " />
<polyline fill="none" vector-effect="none" points="530,0 530,5 " />
<polyline fill="none" vector-effect="none" points="666,0 666,5 " />
<polyline fill="none" vector-effect="none" points="802,0 802,5 " />
</g>
</g>

<g  clip-path="url(#clip1)" 
>
<g fill="none" stroke="#f5f5f5" stroke-opacity="1" stroke-width="1" stroke-linecap="butt" stroke-linejoin="bevel" transform="matrix(1,0,0,1,59,689)"
font-family="Benton Sans Book" font-size="16" font-weight="400" font-style="normal" 
>
<polyline fill="none" vector-effect="none" points="15,0 15,2 " />
<polyline fill="none" vector-effect="none" points="42,0 42,2 " />
<polyline fill="none" vector-effect="none" points="69,0 69,2 " />
<polyline fill="none" vector-effect="none" points="96,0 96,2 " />
<polyline fill="none" vector-effect="none" points="150,0 150,2 " />
<polyline fill="none" vector-effect="none" points="178,0 178,2 " />
<polyline fill="none" vector-effect="none" points="205,0 205,2 " />
<polyline fill="none" vector-effect="none" points="232,0 232,2 " />
<polyline fill="none" vector-effect="none" points="286,0 286,2 " />
<polyline fill="none" vector-effect="none" points="313,0 313,2 " />
<polyline fill="none" vector-effect="none" points="340,0 340,2 " />
<polyline fill="none" vector-effect="none" points="368,0 368,2 " />
<polyline fill="none" vector-effect="none" points="422,0 422,2 " />
<polyline fill="none" vector-effect="none" points="449,0 449,2 " />
<polyline fill="none" vector-effect="none" points="476,0 476,2 " />
<polyline fill="none" vector-effect="none" points="503,0 503,2 " />
<polyline fill="none" vector-effect="none" points="558,0 558,2 " />
<polyline fill="none" vector-effect="none" points="585,0 585,2 " />
<polyline fill="none" vector-effect="none" points="612,0 612,2 " />
<polyline fill="none" vector-effect="none" points="639,0 639,2 " />
<polyline fill="none" vector-effect="none" points="693,0 693,2 " />
<polyline fill="none" vector-effect="none" points="720,0 720,2 " />
<polyline fill="none" vector-effect="none" points="748,0 748,2 " />
<polyline fill="none" vector-effect="none" points="775,0 775,2 " />
<polyline fill="none" vector-effect="none" points="829,0 829,2 " />
<polyline fill="none" vector-effect="none" points="856,0 856,2 " />
<polyline fill="none" vector-effect="none" points="883,0 883,2 " />
</g>
</g>

<g  clip-path="url(#clip1)" 
>
<g fill="none" stroke="#666666" stroke-opacity="1" stroke-width="1" stroke-linecap="square" stroke-linejoin="bevel" transform="matrix(1,0,0,1,59,689)"
font-family="Arial" font-size="12" font-weight="400" font-style="normal" 
>
<text fill="#666666" fill-opacity="1" stroke="none" xml:space="preserve" x="110.156" y="18" font-family="Arial" font-size="12" font-weight="400" font-style="normal" 
 >1996</text>
</g>
</g>

<g  clip-path="url(#clip1)" 
>
<g fill="none" stroke="#666666" stroke-opacity="1" stroke-width="1" stroke-linecap="square" stroke-linejoin="bevel" transform="matrix(1,0,0,1,59,689)"
font-family="Arial" font-size="12" font-weight="400" font-style="normal" 
>
<text fill="#666666" fill-opacity="1" stroke="none" xml:space="preserve" x="246.156" y="18" font-family="Arial" font-size="12" font-weight="400" font-style="normal" 
 >2001</text>
</g>
</g>

<g  clip-path="url(#clip1)" 
>
<g fill="none" stroke="#666666" stroke-opacity="1" stroke-width="1" stroke-linecap="square" stroke-linejoin="bevel" transform="matrix(1,0,0,1,59,689)"
font-family="Arial" font-size="12" font-weight="400" font-style="normal" 
>
<text fill="#666666" fill-opacity="1" stroke="none" xml:space="preserve" x="381.656" y="18" font-family="Arial" font-size="12" font-weight="400" font-style="normal" 
 >2006</text>
</g>
</g>

<g  clip-path="url(#clip1)" 
>
<g fill="none" stroke="#666666" stroke-opacity="1" stroke-width="1" stroke-linecap="square" stroke-linejoin="bevel" transform="matrix(1,0,0,1,59,689)"
font-family="Arial" font-size="12" font-weight="400" font-style="normal" 
>
<text fill="#666666" fill-opacity="1" stroke="none" xml:space="preserve" x="517.656" y="18" font-family="Arial" font-size="12" font-weight="400" font-style="normal" 
 >2011</text>
</g>
</g>

<g  clip-path="url(#clip1)" 
>
<g fill="none" stroke="#666666" stroke-opacity="1" stroke-width="1" stroke-linecap="square" stroke-linejoin="bevel" transform="matrix(1,0,0,1,59,689)"
font-family="Arial" font-size="12" font-weight="400" font-style="normal" 
>
<text fill="#666666" fill-opacity="1" stroke="none" xml:space="preserve" x="653.156" y="18" font-family="Arial" font-size="12" font-weight="400" font-style="normal" 
 >2016</text>
</g>
</g>

<g  clip-path="url(#clip1)" 
>
<g fill="none" stroke="#666666" stroke-opacity="1" stroke-width="1" stroke-linecap="square" stroke-linejoin="bevel" transform="matrix(1,0,0,1,59,689)"
font-family="Arial" font-size="12" font-weight="400" font-style="normal" 
>
<text fill="#666666" fill-opacity="1" stroke="none" xml:space="preserve" x="789.156" y="18" font-family="Arial" font-size="12" font-weight="400" font-style="normal" 
 >2021</text>
</g>
</g>

<g  clip-path="url(#clip1)" 
>
<g fill="none" stroke="#333333" stroke-opacity="1" stroke-width="1" stroke-linecap="square" stroke-linejoin="bevel" transform="matrix(1,0,0,1,59,689)"
font-family="Arial" font-size="12" font-weight="400" font-style="normal" 
>
<text fill="#333333" fill-opacity="1" stroke="none" xml:space="preserve" x="436.75" y="45" font-family="Arial" font-size="12" font-weight="400" font-style="normal" 
 >Year</text>
</g>
</g>

<g >
<g fill="none" stroke="#333333" stroke-opacity="1" stroke-width="1" stroke-linecap="square" stroke-linejoin="bevel" transform="matrix(1,0,0,1,59,689)"
font-family="Arial" font-size="12" font-weight="400" font-style="normal" 
>
</g>
</g>

<clipPath id ="clip2" >
<rect x="-1" y="-1" height="648" width="61" transform="matrix(1,0,0,1,0,43)" />
</clipPath>
<g  clip-path="url(#clip2)" 
>
<g fill="none" stroke="#333333" stroke-opacity="1" stroke-width="1" stroke-linecap="square" stroke-linejoin="bevel" transform="matrix(1,0,0,1,0,43)"
font-family="Arial" font-size="12" font-weight="400" font-style="normal" 
>
</g>
</g>

<g  clip-path="url(#clip2)" 
>
<g fill="none" stroke="#f5f5f5" stroke-opacity="1" stroke-width="1" stroke-linecap="butt" stroke-linejoin="bevel" transform="matrix(1,0,0,1,0,43)"
font-family="Arial" font-size="12" font-weight="400" font-style="normal" 
>
<polyline fill="none" vector-effect="none" points="54,606 59,606 " />
<polyline fill="none" vector-effect="none" points="54,528 59,528 " />
<polyline fill="none" vector-effect="none" points="54,450 59,450 " />
<polyline fill="none" vector-effect="none" points="54,373 59,373 " />
<polyline fill="none" vector-effect="none" points="54,295 59,295 " />
<polyline fill="none" vector-effect="none" points="54,217 59,217 " />
<polyline fill="none" vector-effect="none" points="54,140 59,140 " />
<polyline fill="none" vector-effect="none" points="54,62 59,62 " />
</g>
</g>

<g  clip-path="url(#clip2)" 
>
<g fill="none" stroke="#666666" stroke-opacity="1" stroke-width="1" stroke-linecap="square" stroke-linejoin="bevel" transform="matrix(1,0,0,1,0,43)"
font-family="Arial" font-size="12" font-weight="400" font-style="normal" 
>
<text fill="#666666" fill-opacity="1" stroke="none" xml:space="preserve" x="45.3281" y="610" font-family="Arial" font-size="12" font-weight="400" font-style="normal" 
 >0</text>
</g>
</g>

<g  clip-path="url(#clip2)" 
>
<g fill="none" stroke="#666666" stroke-opacity="1" stroke-width="1" stroke-linecap="square" stroke-linejoin="bevel" transform="matrix(1,0,0,1,0,43)"
font-family="Arial" font-size="12" font-weight="400" font-style="normal" 
>
<text fill="#666666" fill-opacity="1" stroke="none" xml:space="preserve" x="38.6563" y="532" font-family="Arial" font-size="12" font-weight="400" font-style="normal" 
 >10</text>
</g>
</g>

<g  clip-path="url(#clip2)" 
>
<g fill="none" stroke="#666666" stroke-opacity="1" stroke-width="1" stroke-linecap="square" stroke-linejoin="bevel" transform="matrix(1,0,0,1,0,43)"
font-family="Arial" font-size="12" font-weight="400" font-style="normal" 
>
<text fill="#666666" fill-opacity="1" stroke="none" xml:space="preserve" x="38.6563" y="454" font-family="Arial" font-size="12" font-weight="400" font-style="normal" 
 >20</text>
</g>
</g>

<g  clip-path="url(#clip2)" 
>
<g fill="none" stroke="#666666" stroke-opacity="1" stroke-width="1" stroke-linecap="square" stroke-linejoin="bevel" transform="matrix(1,0,0,1,0,43)"
font-family="Arial" font-size="12" font-weight="400" font-style="normal" 
>
<text fill="#666666" fill-opacity="1" stroke="none" xml:space="preserve" x="38.6563" y="377" font-family="Arial" font-size="12" font-weight="400" font-style="normal" 
 >30</text>
</g>
</g>

<g  clip-path="url(#clip2)" 
>
<g fill="none" stroke="#666666" stroke-opacity="1" stroke-width="1" stroke-linecap="square" stroke-linejoin="bevel" transform="matrix(1,0,0,1,0,43)"
font-family="Arial" font-size="12" font-weight="400" font-style="normal" 
>
<text fill="#666666" fill-opacity="1" stroke="none" xml:space="preserve" x="38.6563" y="299" font-family="Arial" font-size="12" font-weight="400" font-style="normal" 
 >40</text>
</g>
</g>

<g  clip-path="url(#clip2)" 
>
<g fill="none" stroke="#666666" stroke-opacity="1" stroke-width="1" stroke-linecap="square" stroke-linejoin="bevel" transform="matrix(1,0,0,1,0,43)"
font-family="Arial" font-size="12" font-weight="400" font-style="normal" 
>
<text fill="#666666" fill-opacity="1" stroke="none" xml:space="preserve" x="38.6563" y="221" font-family="Arial" font-size="12" font-weight="400" font-style="normal" 
 >50</text>
</g>
</g>

<g  clip-path="url(#clip2)" 
>
<g fill="none" stroke="#666666" stroke-opacity="1" stroke-width="1" stroke-linecap="square" stroke-linejoin="bevel" transform="matrix(1,0,0,1,0,43)"
font-family="Arial" font-size="12" font-weight="400" font-style="normal" 
>
<text fill="#666666" fill-opacity="1" stroke="none" xml:space="preserve" x="38.6563" y="144" font-family="Arial" font-size="12" font-weight="400" font-style="normal" 
 >60</text>
</g>
</g>

<g  clip-path="url(#clip2)" 
>
<g fill="none" stroke="#666666" stroke-opacity="1" stroke-width="1" stroke-linecap="square" stroke-linejoin="bevel" transform="matrix(1,0,0,1,0,43)"
font-family="Arial" font-size="12" font-weight="400" font-style="normal" 
>
<text fill="#666666" fill-opacity="1" stroke="none" xml:space="preserve" x="38.6563" y="66" font-family="Arial" font-size="12" font-weight="400" font-style="normal" 
 >70</text>
</g>
</g>

<g  clip-path="url(#clip2)" 
>
<g fill="none" stroke="#666666" stroke-opacity="1" stroke-width="1" stroke-linecap="square" stroke-linejoin="bevel" transform="matrix(1,0,0,1,0,43)"
font-family="Arial" font-size="12" font-weight="400" font-style="normal" 
>
</g>
</g>

<g  clip-path="url(#clip2)" 
>
<g fill="none" stroke="#333333" stroke-opacity="1" stroke-width="1" stroke-linecap="square" stroke-linejoin="bevel" transform="matrix(0,-1,1,0,17.8594,455.656)"
font-family="Arial" font-size="12" font-weight="400" font-style="normal" 
>
<text fill="#333333" fill-opacity="1" stroke="none" xml:space="preserve" x="0" y="0" font-family="Arial" font-size="12" font-weight="400" font-style="normal" 
 >Percentage of Graduates Enrolled</text>
</g>
</g>

<g  clip-path="url(#clip2)" 
>
<g fill="none" stroke="#666666" stroke-opacity="1" stroke-width="1" stroke-linecap="square" stroke-linejoin="bevel" transform="matrix(1,0,0,1,0,43)"
font-family="Arial" font-size="12" font-weight="400" font-style="normal" 
>
</g>
</g>

<g >
<g fill="none" stroke="#666666" stroke-opacity="1" stroke-width="1" stroke-linecap="square" stroke-linejoin="bevel" transform="matrix(1,0,0,1,0,43)"
font-family="Arial" font-size="12" font-weight="400" font-style="normal" 
>
</g>
</g>

<g  clip-path="url(#clip2)" 
>
<g fill="none" stroke="#666666" stroke-opacity="1" stroke-width="1" stroke-linecap="square" stroke-linejoin="bevel" transform="matrix(1,0,0,1,59,43)"
font-family="Arial" font-size="12" font-weight="400" font-style="normal" 
>
</g>
</g>

<clipPath id ="clip3" >
<rect x="0" y="0" height="647" width="900" transform="matrix(1,0,0,1,59,43)" />
</clipPath>
<g  clip-path="url(#clip3)" 
>
<g fill="none" stroke="#666666" stroke-opacity="1" stroke-width="1" stroke-linecap="square" stroke-linejoin="bevel" transform="matrix(1,0,0,1,59,43)"
font-family="Arial" font-size="12" font-weight="400" font-style="normal" 
>
</g>
</g>

<clipPath id ="clip4" >
<rect x="0" y="0" height="647" width="900" transform="matrix(1,0,0,1,59,43)" />
</clipPath>
<g  clip-path="url(#clip4)" 
>
<g fill="none" stroke="#666666" stroke-opacity="1" stroke-width="1" stroke-linecap="square" stroke-linejoin="bevel" transform="matrix(1,0,0,1,59,43)"
font-family="Arial" font-size="12" font-weight="400" font-style="normal" 
>
</g>
</g>

<g  clip-path="url(#clip4)" 
>
<g fill="#ffffff" fill-opacity="1" stroke="none" transform="matrix(1,0,0,1,59,43)"
font-family="Arial" font-size="12" font-weight="400" font-style="normal" 
>
<rect x="0" y="0" width="900" height="647"/>
</g>
</g>

<g  clip-path="url(#clip4)" 
>
<g fill="#ffffff" fill-opacity="1" stroke="none" transform="matrix(1,0,0,1,59,43)"
font-family="Arial" font-size="12" font-weight="400" font-style="normal" 
>
<rect x="0" y="0" width="900" height="647"/>
</g>
</g>

<clipPath id ="clip5" >
<rect x="0" y="0" height="647" width="900" transform="matrix(1,0,0,1,59,43)" />
</clipPath>
<g  clip-path="url(#clip5)" 
>
<g fill="none" stroke="#666666" stroke-opacity="1" stroke-width="1" stroke-linecap="square" stroke-linejoin="bevel" transform="matrix(1,0,0,1,59,43)"
font-family="Arial" font-size="12" font-weight="400" font-style="normal" 
>
</g>
</g>

<g  clip-path="url(#clip5)" 
>
<g fill="#ffffff" fill-opacity="1" stroke="none" transform="matrix(1,0,0,1,59,43)"
font-family="Arial" font-size="12" font-weight="400" font-style="normal" 
>
<rect x="0" y="0" width="900" height="647"/>
</g>
</g>

<clipPath id ="clip6" >
<rect x="0" y="0" height="647" width="900" transform="matrix(1,0,0,1,59,43)" />
</clipPath>
<g  clip-path="url(#clip6)" 
>
<g fill="none" stroke="#666666" stroke-opacity="1" stroke-width="1" stroke-linecap="square" stroke-linejoin="bevel" transform="matrix(1,0,0,1,59,43)"
font-family="Arial" font-size="12" font-weight="400" font-style="normal" 
>
</g>
</g>

<clipPath id ="clip7" >
<rect x="0" y="0" height="647" width="900" transform="matrix(1,0,0,1,59,43)" />
</clipPath>
<g  clip-path="url(#clip7)" 
>
<g fill="none" stroke="#666666" stroke-opacity="1" stroke-width="1" stroke-linecap="square" stroke-linejoin="bevel" transform="matrix(1,0,0,1,59,43)"
font-family="Arial" font-size="12" font-weight="400" font-style="normal" 
>
</g>
</g>

<clipPath id ="clip8" >
<rect x="0" y="0" height="647" width="900" transform="matrix(1,0,0,1,59,43)" />
</clipPath>
<g  clip-path="url(#clip8)" 
>
<g fill="none" stroke="#666666" stroke-opacity="1" stroke-width="1" stroke-linecap="square" stroke-linejoin="bevel" transform="matrix(1,0,0,1,59,43)"
font-family="Arial" font-size="12" font-weight="400" font-style="normal" 
>
</g>
</g>

<clipPath id ="clip9" >
<rect x="0" y="0" height="647" width="900" transform="matrix(1,0,0,1,59,43)" />
</clipPath>
<g  clip-path="url(#clip9)" 
>
<g fill="none" stroke="#666666" stroke-opacity="1" stroke-width="1" stroke-linecap="square" stroke-linejoin="bevel" transform="matrix(1,0,0,1,59,43)"
font-family="Arial" font-size="12" font-weight="400" font-style="normal" 
>
</g>
</g>

<g  clip-path="url(#clip9)" 
>
<g fill="#ffffff" fill-opacity="1" stroke="none" transform="matrix(1,0,0,1,59,43)"
font-family="Arial" font-size="12" font-weight="400" font-style="normal" 
>
<rect x="0" y="0" width="900" height="647"/>
</g>
</g>

<clipPath id ="clip10" >
<rect x="0" y="0" height="647" width="900" transform="matrix(1,0,0,1,59,43)" />
</clipPath>
<g  clip-path="url(#clip10)" 
>
<g fill="none" stroke="#666666" stroke-opacity="1" stroke-width="1" stroke-linecap="square" stroke-linejoin="bevel" transform="matrix(1,0,0,1,59,43)"
font-family="Arial" font-size="12" font-weight="400" font-style="normal" 
>
</g>
</g>

<clipPath id ="clip11" >
<rect x="0" y="0" height="646" width="899" transform="matrix(1,0,0,1,59,43)" />
</clipPath>
<g  clip-path="url(#clip11)" 
>
<g fill="none" stroke="#666666" stroke-opacity="1" stroke-width="1" stroke-linecap="square" stroke-linejoin="bevel" transform="matrix(1,0,0,1,59,43)"
font-family="Arial" font-size="12" font-weight="400" font-style="normal" 
>
</g>
</g>

<g  clip-path="url(#clip11)" 
>
<g fill="none" stroke="#f2f2f2" stroke-opacity="1" stroke-width="1" stroke-linecap="square" stroke-linejoin="bevel" transform="matrix(1,0,0,1,59,43)"
font-family="Arial" font-size="12" font-weight="400" font-style="normal" 
>
<polyline fill="none" vector-effect="none" points="0,528 899,528 " />
<polyline fill="none" vector-effect="none" points="0,450 899,450 " />
<polyline fill="none" vector-effect="none" points="0,373 899,373 " />
<polyline fill="none" vector-effect="none" points="0,295 899,295 " />
<polyline fill="none" vector-effect="none" points="0,217 899,217 " />
<polyline fill="none" vector-effect="none" points="0,140 899,140 " />
<polyline fill="none" vector-effect="none" points="0,62 899,62 " />
</g>
</g>

<clipPath id ="clip12" >
<rect x="0" y="0" height="647" width="900" transform="matrix(1,0,0,1,59,43)" />
</clipPath>
<g  clip-path="url(#clip12)" 
>
<g fill="none" stroke="#f2f2f2" stroke-opacity="1" stroke-width="1" stroke-linecap="square" stroke-linejoin="bevel" transform="matrix(1,0,0,1,59,43)"
font-family="Arial" font-size="12" font-weight="400" font-style="normal" 
>
</g>
</g>

<clipPath id ="clip13" >
<rect x="0" y="0" height="646" width="899" transform="matrix(1,0,0,1,59,43)" />
</clipPath>
<g  clip-path="url(#clip13)" 
>
<g fill="none" stroke="#f2f2f2" stroke-opacity="1" stroke-width="1" stroke-linecap="square" stroke-linejoin="bevel" transform="matrix(1,0,0,1,59,43)"
font-family="Arial" font-size="12" font-weight="400" font-style="normal" 
>
</g>
</g>

<g  clip-path="url(#clip13)" 
>
<g fill="none" stroke="#cbcbcb" stroke-opacity="1" stroke-dasharray="1,2" stroke-dashoffset="0" stroke-width="1" stroke-linecap="square" stroke-linejoin="bevel" transform="matrix(1,0,0,1,59,43)"
font-family="Arial" font-size="12" font-weight="400" font-style="normal" 
>
<polyline fill="none" vector-effect="none" points="0,606 899,606 " />
</g>
</g>

<clipPath id ="clip14" >
<rect x="0" y="0" height="647" width="900" transform="matrix(1,0,0,1,59,43)" />
</clipPath>
<g  clip-path="url(#clip14)" 
>
<g fill="none" stroke="#cbcbcb" stroke-opacity="1" stroke-dasharray="1,2" stroke-dashoffset="0" stroke-width="1" stroke-linecap="square" stroke-linejoin="bevel" transform="matrix(1,0,0,1,59,43)"
font-family="Arial" font-size="12" font-weight="400" font-style="normal" 
>
</g>
</g>

<clipPath id ="clip15" >
<rect x="0" y="0" height="646" width="899" transform="matrix(1,0,0,1,59,43)" />
</clipPath>
<g  clip-path="url(#clip15)" 
>
<g fill="none" stroke="#cbcbcb" stroke-opacity="1" stroke-dasharray="1,2" stroke-dashoffset="0" stroke-width="1" stroke-linecap="square" stroke-linejoin="bevel" transform="matrix(1,0,0,1,59,43)"
font-family="Arial" font-size="12" font-weight="400" font-style="normal" 
>
</g>
</g>

<clipPath id ="clip16" >
<rect x="0" y="0" height="647" width="900" transform="matrix(1,0,0,1,59,43)" />
</clipPath>
<g  clip-path="url(#clip16)" 
>
<g fill="none" stroke="#cbcbcb" stroke-opacity="1" stroke-dasharray="1,2" stroke-dashoffset="0" stroke-width="1" stroke-linecap="square" stroke-linejoin="bevel" transform="matrix(1,0,0,1,59,43)"
font-family="Arial" font-size="12" font-weight="400" font-style="normal" 
>
</g>
</g>

<clipPath id ="clip17" >
<rect x="0" y="0" height="647" width="900" transform="matrix(1,0,0,1,59,43)" />
</clipPath>
<g  clip-path="url(#clip17)" 
>
<g fill="none" stroke="#cbcbcb" stroke-opacity="1" stroke-dasharray="1,2" stroke-dashoffset="0" stroke-width="1" stroke-linecap="square" stroke-linejoin="bevel" transform="matrix(1,0,0,1,59,43)"
font-family="Arial" font-size="12" font-weight="400" font-style="normal" 
>
</g>
</g>

<clipPath id ="clip18" >
<rect x="0" y="0" height="646" width="899" transform="matrix(1,0,0,1,59,43)" />
</clipPath>
<g  clip-path="url(#clip18)" 
>
<g fill="none" stroke="#cbcbcb" stroke-opacity="1" stroke-dasharray="1,2" stroke-dashoffset="0" stroke-width="1" stroke-linecap="square" stroke-linejoin="bevel" transform="matrix(1,0,0,1,59,43)"
font-family="Arial" font-size="12" font-weight="400" font-style="normal" 
>
</g>
</g>

<clipPath id ="clip19" >
<rect x="0" y="0" height="647" width="900" transform="matrix(1,0,0,1,59,43)" />
</clipPath>
<g  clip-path="url(#clip19)" 
>
<g fill="none" stroke="#cbcbcb" stroke-opacity="1" stroke-dasharray="1,2" stroke-dashoffset="0" stroke-width="1" stroke-linecap="square" stroke-linejoin="bevel" transform="matrix(1,0,0,1,59,43)"
font-family="Arial" font-size="12" font-weight="400" font-style="normal" 
>
</g>
</g>

<clipPath id ="clip20" >
<rect x="0" y="0" height="646" width="899" transform="matrix(1,0,0,1,59,43)" />
</clipPath>
<g  clip-path="url(#clip20)" 
>
<g fill="none" stroke="#cbcbcb" stroke-opacity="1" stroke-dasharray="1,2" stroke-dashoffset="0" stroke-width="1" stroke-linecap="square" stroke-linejoin="bevel" transform="matrix(1,0,0,1,59,43)"
font-family="Arial" font-size="12" font-weight="400" font-style="normal" 
>
</g>
</g>

<clipPath id ="clip21" >
<rect x="0" y="0" height="647" width="900" transform="matrix(1,0,0,1,59,43)" />
</clipPath>
<g  clip-path="url(#clip21)" 
>
<g fill="none" stroke="#cbcbcb" stroke-opacity="1" stroke-dasharray="1,2" stroke-dashoffset="0" stroke-width="1" stroke-linecap="square" stroke-linejoin="bevel" transform="matrix(1,0,0,1,59,43)"
font-family="Arial" font-size="12" font-weight="400" font-style="normal" 
>
</g>
</g>

<clipPath id ="clip22" >
<rect x="0" y="0" height="646" width="899" transform="matrix(1,0,0,1,59,43)" />
</clipPath>
<g  clip-path="url(#clip22)" 
>
<g fill="none" stroke="#cbcbcb" stroke-opacity="1" stroke-dasharray="1,2" stroke-dashoffset="0" stroke-width="1" stroke-linecap="square" stroke-linejoin="bevel" transform="matrix(1,0,0,1,59,43)"
font-family="Arial" font-size="12" font-weight="400" font-style="normal" 
>
</g>
</g>

<g  clip-path="url(#clip22)" 
>
<g fill="none" stroke="#f28e2b" stroke-opacity="1" stroke-width="3" stroke-linecap="round" stroke-linejoin="round" transform="matrix(1,0,0,1,59,43)"
font-family="Arial" font-size="12" font-weight="400" font-style="normal" 
>
<polyline fill="none" vector-effect="none" points="42.7928,562.138 69.9226,586.234 97.0524,615.773 124.182,531.822 151.386,553.587 178.516,554.364 205.646,583.125 232.776,557.474 259.98,576.907 287.11,557.474 314.239,565.247 341.369,527.158 368.573,576.129 395.703,604.89 422.833,589.344 449.963,562.915 477.167,545.814 504.297,519.385 531.427,546.591 558.556,528.713 585.76,568.356 612.89,538.818 640.02,553.587 667.15,571.465 694.354,524.049 721.484,572.243 748.614,545.814 775.743,552.81 802.948,492.956 830.077,537.263 857.207,546.591 " />
</g>
</g>

<g  clip-path="url(#clip22)" 
>
<g fill="none" stroke="#cbcbcb" stroke-opacity="1" stroke-dasharray="1,2" stroke-dashoffset="0" stroke-width="1" stroke-linecap="square" stroke-linejoin="bevel" transform="matrix(1,0,0,1,59,43)"
font-family="Arial" font-size="12" font-weight="400" font-style="normal" 
>
<path vector-effect="none" fill-rule="nonzero" d="M0,0"/>
</g>
</g>

<g  clip-path="url(#clip22)" 
>
<g fill="none" stroke="#a1cc9a" stroke-opacity="1" stroke-width="3" stroke-linecap="round" stroke-linejoin="round" transform="matrix(1,0,0,1,59,43)"
font-family="Arial" font-size="12" font-weight="400" font-style="normal" 
>
<polyline fill="none" vector-effect="none" points="42.7928,98.0769 69.9226,115.178 97.0524,129.17 124.182,64.6521 151.386,59.9882 178.516,69.316 205.646,105.85 232.776,91.8583 259.98,112.846 287.11,74.7573 314.239,89.5264 341.369,49.883 368.573,59.2108 395.703,92.6356 422.833,75.5346 449.963,50.6603 477.167,32.7819 504.297,31.2273 531.427,44.4417 558.556,52.2149 585.76,74.7573 612.89,41.3324 640.02,42.1098 667.15,47.551 694.354,49.1057 721.484,52.2149 748.614,63.8748 775.743,91.8583 802.948,66.2067 830.077,92.6356 857.207,98.8542 " />
</g>
</g>

<g  clip-path="url(#clip22)" 
>
<g fill="none" stroke="#cbcbcb" stroke-opacity="1" stroke-dasharray="1,2" stroke-dashoffset="0" stroke-width="1" stroke-linecap="square" stroke-linejoin="bevel" transform="matrix(1,0,0,1,59,43)"
font-family="Arial" font-size="12" font-weight="400" font-style="normal" 
>
<path vector-effect="none" fill-rule="nonzero" d="M0,0"/>
</g>
</g>

<g  clip-path="url(#clip22)" 
>
<g fill="none" stroke="#000000" stroke-opacity="1" stroke-width="3" stroke-linecap="round" stroke-linejoin="round" transform="matrix(1,0,0,1,59,43)"
font-family="Arial" font-size="12" font-weight="400" font-style="normal" 
>
<polyline fill="none" vector-effect="none" points="42.7928,119.842 69.9226,125.283 97.0524,125.283 124.182,101.186 151.386,85.6397 178.516,96.5222 205.646,117.51 232.776,114.401 259.98,127.615 287.11,99.6315 314.239,109.737 341.369,87.9717 368.573,73.2026 395.703,93.413 422.833,84.0851 449.963,73.2026 477.167,61.5428 504.297,77.0892 531.427,75.5346 558.556,91.8583 585.76,94.1903 612.89,74.7573 640.02,68.5387 667.15,64.6521 694.354,87.9717 721.484,69.316 748.614,91.8583 775.743,119.065 802.948,126.06 830.077,124.506 857.207,129.17 " />
</g>
</g>

<g  clip-path="url(#clip22)" 
>
<g fill="none" stroke="#cbcbcb" stroke-opacity="1" stroke-dasharray="1,2" stroke-dashoffset="0" stroke-width="1" stroke-linecap="square" stroke-linejoin="bevel" transform="matrix(1,0,0,1,59,43)"
font-family="Arial" font-size="12" font-weight="400" font-style="normal" 
>
<path vector-effect="none" fill-rule="nonzero" d="M0,0"/>
</g>
</g>

<g  clip-path="url(#clip22)" 
>
<g fill="none" stroke="#acc8e5" stroke-opacity="1" stroke-width="3" stroke-linecap="round" stroke-linejoin="round" transform="matrix(1,0,0,1,59,43)"
font-family="Arial" font-size="12" font-weight="400" font-style="normal" 
>
<polyline fill="none" vector-effect="none" points="42.7928,142.384 69.9226,135.388 97.0524,119.842 124.182,139.275 151.386,112.846 178.516,121.397 205.646,129.17 232.776,140.83 259.98,142.384 287.11,123.728 314.239,130.724 341.369,129.17 368.573,89.5264 395.703,94.1903 422.833,92.6356 449.963,94.1903 477.167,93.413 504.297,118.287 531.427,104.295 558.556,129.947 585.76,112.846 612.89,108.959 640.02,94.9676 667.15,82.5305 694.354,131.502 721.484,86.4171 748.614,124.506 775.743,145.493 802.948,179.696 830.077,161.817 857.207,158.708 " />
</g>
</g>

<g  clip-path="url(#clip22)" 
>
<g fill="none" stroke="#cbcbcb" stroke-opacity="1" stroke-dasharray="1,2" stroke-dashoffset="0" stroke-width="1" stroke-linecap="square" stroke-linejoin="bevel" transform="matrix(1,0,0,1,59,43)"
font-family="Arial" font-size="12" font-weight="400" font-style="normal" 
>
<path vector-effect="none" fill-rule="nonzero" d="M0,0"/>
</g>
</g>

<clipPath id ="clip23" >
<rect x="0" y="0" height="647" width="900" transform="matrix(1,0,0,1,59,43)" />
</clipPath>
<g  clip-path="url(#clip23)" 
>
<g fill="none" stroke="#cbcbcb" stroke-opacity="1" stroke-dasharray="1,2" stroke-dashoffset="0" stroke-width="1" stroke-linecap="square" stroke-linejoin="bevel" transform="matrix(1,0,0,1,59,43)"
font-family="Arial" font-size="12" font-weight="400" font-style="normal" 
>
</g>
</g>

<clipPath id ="clip24" >
<rect x="0" y="0" height="647" width="900" transform="matrix(1,0,0,1,59,43)" />
</clipPath>
<g  clip-path="url(#clip24)" 
>
<g fill="none" stroke="#cbcbcb" stroke-opacity="1" stroke-dasharray="1,2" stroke-dashoffset="0" stroke-width="1" stroke-linecap="square" stroke-linejoin="bevel" transform="matrix(1,0,0,1,59,43)"
font-family="Arial" font-size="12" font-weight="400" font-style="normal" 
>
</g>
</g>

<clipPath id ="clip25" >
<rect x="0" y="0" height="646" width="899" transform="matrix(1,0,0,1,59,43)" />
</clipPath>
<g  clip-path="url(#clip25)" 
>
<g fill="none" stroke="#cbcbcb" stroke-opacity="1" stroke-dasharray="1,2" stroke-dashoffset="0" stroke-width="1" stroke-linecap="square" stroke-linejoin="bevel" transform="matrix(1,0,0,1,59,43)"
font-family="Arial" font-size="12" font-weight="400" font-style="normal" 
>
</g>
</g>

<clipPath id ="clip26" >
<rect x="0" y="0" height="647" width="900" transform="matrix(1,0,0,1,59,43)" />
</clipPath>
<g  clip-path="url(#clip26)" 
>
<g fill="none" stroke="#cbcbcb" stroke-opacity="1" stroke-dasharray="1,2" stroke-dashoffset="0" stroke-width="1" stroke-linecap="square" stroke-linejoin="bevel" transform="matrix(1,0,0,1,59,43)"
font-family="Arial" font-size="12" font-weight="400" font-style="normal" 
>
</g>
</g>

<clipPath id ="clip27" >
<rect x="0" y="0" height="646" width="899" transform="matrix(1,0,0,1,59,43)" />
</clipPath>
<g  clip-path="url(#clip27)" 
>
<g fill="none" stroke="#cbcbcb" stroke-opacity="1" stroke-dasharray="1,2" stroke-dashoffset="0" stroke-width="1" stroke-linecap="square" stroke-linejoin="bevel" transform="matrix(1,0,0,1,59,43)"
font-family="Arial" font-size="12" font-weight="400" font-style="normal" 
>
</g>
</g>

<clipPath id ="clip28" >
<rect x="0" y="0" height="647" width="900" transform="matrix(1,0,0,1,59,43)" />
</clipPath>
<g  clip-path="url(#clip28)" 
>
<g fill="none" stroke="#cbcbcb" stroke-opacity="1" stroke-dasharray="1,2" stroke-dashoffset="0" stroke-width="1" stroke-linecap="square" stroke-linejoin="bevel" transform="matrix(1,0,0,1,59,43)"
font-family="Arial" font-size="12" font-weight="400" font-style="normal" 
>
</g>
</g>

<clipPath id ="clip29" >
<rect x="0" y="0" height="646" width="899" transform="matrix(1,0,0,1,59,43)" />
</clipPath>
<g  clip-path="url(#clip29)" 
>
<g fill="none" stroke="#cbcbcb" stroke-opacity="1" stroke-dasharray="1,2" stroke-dashoffset="0" stroke-width="1" stroke-linecap="square" stroke-linejoin="bevel" transform="matrix(1,0,0,1,59,43)"
font-family="Arial" font-size="12" font-weight="400" font-style="normal" 
>
</g>
</g>

<clipPath id ="clip30" >
<rect x="0" y="0" height="647" width="900" transform="matrix(1,0,0,1,59,43)" />
</clipPath>
<g  clip-path="url(#clip30)" 
>
<g fill="none" stroke="#cbcbcb" stroke-opacity="1" stroke-dasharray="1,2" stroke-dashoffset="0" stroke-width="1" stroke-linecap="square" stroke-linejoin="bevel" transform="matrix(1,0,0,1,59,43)"
font-family="Arial" font-size="12" font-weight="400" font-style="normal" 
>
</g>
</g>

<clipPath id ="clip31" >
<rect x="0" y="0" height="647" width="900" transform="matrix(1,0,0,1,59,43)" />
</clipPath>
<g  clip-path="url(#clip31)" 
>
<g fill="none" stroke="#cbcbcb" stroke-opacity="1" stroke-dasharray="1,2" stroke-dashoffset="0" stroke-width="1" stroke-linecap="square" stroke-linejoin="bevel" transform="matrix(1,0,0,1,59,43)"
font-family="Arial" font-size="12" font-weight="400" font-style="normal" 
>
</g>
</g>

<clipPath id ="clip32" >
<rect x="0" y="0" height="646" width="899" transform="matrix(1,0,0,1,59,43)" />
</clipPath>
<g  clip-path="url(#clip32)" 
>
<g fill="none" stroke="#cbcbcb" stroke-opacity="1" stroke-dasharray="1,2" stroke-dashoffset="0" stroke-width="1" stroke-linecap="square" stroke-linejoin="bevel" transform="matrix(1,0,0,1,59,43)"
font-family="Arial" font-size="12" font-weight="400" font-style="normal" 
>
</g>
</g>

<clipPath id ="clip33" >
<rect x="0" y="0" height="647" width="900" transform="matrix(1,0,0,1,59,43)" />
</clipPath>
<g  clip-path="url(#clip33)" 
>
<g fill="none" stroke="#cbcbcb" stroke-opacity="1" stroke-dasharray="1,2" stroke-dashoffset="0" stroke-width="1" stroke-linecap="square" stroke-linejoin="bevel" transform="matrix(1,0,0,1,59,43)"
font-family="Arial" font-size="12" font-weight="400" font-style="normal" 
>
</g>
</g>

<clipPath id ="clip34" >
<rect x="0" y="0" height="646" width="899" transform="matrix(1,0,0,1,59,43)" />
</clipPath>
<g  clip-path="url(#clip34)" 
>
<g fill="none" stroke="#cbcbcb" stroke-opacity="1" stroke-dasharray="1,2" stroke-dashoffset="0" stroke-width="1" stroke-linecap="square" stroke-linejoin="bevel" transform="matrix(1,0,0,1,59,43)"
font-family="Arial" font-size="12" font-weight="400" font-style="normal" 
>
</g>
</g>

<clipPath id ="clip35" >
<rect x="0" y="0" height="647" width="900" transform="matrix(1,0,0,1,59,43)" />
</clipPath>
<g  clip-path="url(#clip35)" 
>
<g fill="none" stroke="#cbcbcb" stroke-opacity="1" stroke-dasharray="1,2" stroke-dashoffset="0" stroke-width="1" stroke-linecap="square" stroke-linejoin="bevel" transform="matrix(1,0,0,1,59,43)"
font-family="Arial" font-size="12" font-weight="400" font-style="normal" 
>
</g>
</g>

<clipPath id ="clip36" >
<rect x="0" y="0" height="646" width="899" transform="matrix(1,0,0,1,59,43)" />
</clipPath>
<g  clip-path="url(#clip36)" 
>
<g fill="none" stroke="#cbcbcb" stroke-opacity="1" stroke-dasharray="1,2" stroke-dashoffset="0" stroke-width="1" stroke-linecap="square" stroke-linejoin="bevel" transform="matrix(1,0,0,1,59,43)"
font-family="Arial" font-size="12" font-weight="400" font-style="normal" 
>
</g>
</g>

<clipPath id ="clip37" >
<rect x="0" y="0" height="647" width="900" transform="matrix(1,0,0,1,59,43)" />
</clipPath>
<g  clip-path="url(#clip37)" 
>
<g fill="none" stroke="#cbcbcb" stroke-opacity="1" stroke-dasharray="1,2" stroke-dashoffset="0" stroke-width="1" stroke-linecap="square" stroke-linejoin="bevel" transform="matrix(1,0,0,1,59,43)"
font-family="Arial" font-size="12" font-weight="400" font-style="normal" 
>
</g>
</g>

<clipPath id ="clip38" >
<rect x="0" y="0" height="647" width="900" transform="matrix(1,0,0,1,59,43)" />
</clipPath>
<g  clip-path="url(#clip38)" 
>
<g fill="none" stroke="#cbcbcb" stroke-opacity="1" stroke-dasharray="1,2" stroke-dashoffset="0" stroke-width="1" stroke-linecap="square" stroke-linejoin="bevel" transform="matrix(1,0,0,1,59,43)"
font-family="Arial" font-size="12" font-weight="400" font-style="normal" 
>
</g>
</g>

<clipPath id ="clip39" >
<rect x="0" y="0" height="646" width="899" transform="matrix(1,0,0,1,59,43)" />
</clipPath>
<g  clip-path="url(#clip39)" 
>
<g fill="none" stroke="#cbcbcb" stroke-opacity="1" stroke-dasharray="1,2" stroke-dashoffset="0" stroke-width="1" stroke-linecap="square" stroke-linejoin="bevel" transform="matrix(1,0,0,1,59,43)"
font-family="Arial" font-size="12" font-weight="400" font-style="normal" 
>
</g>
</g>

<clipPath id ="clip40" >
<rect x="0" y="0" height="647" width="900" transform="matrix(1,0,0,1,59,43)" />
</clipPath>
<g  clip-path="url(#clip40)" 
>
<g fill="none" stroke="#cbcbcb" stroke-opacity="1" stroke-dasharray="1,2" stroke-dashoffset="0" stroke-width="1" stroke-linecap="square" stroke-linejoin="bevel" transform="matrix(1,0,0,1,59,43)"
font-family="Arial" font-size="12" font-weight="400" font-style="normal" 
>
</g>
</g>

<clipPath id ="clip41" >
<rect x="0" y="0" height="646" width="899" transform="matrix(1,0,0,1,59,43)" />
</clipPath>
<g  clip-path="url(#clip41)" 
>
<g fill="none" stroke="#cbcbcb" stroke-opacity="1" stroke-dasharray="1,2" stroke-dashoffset="0" stroke-width="1" stroke-linecap="square" stroke-linejoin="bevel" transform="matrix(1,0,0,1,59,43)"
font-family="Arial" font-size="12" font-weight="400" font-style="normal" 
>
</g>
</g>

<clipPath id ="clip42" >
<rect x="0" y="0" height="647" width="900" transform="matrix(1,0,0,1,59,43)" />
</clipPath>
<g  clip-path="url(#clip42)" 
>
<g fill="none" stroke="#cbcbcb" stroke-opacity="1" stroke-dasharray="1,2" stroke-dashoffset="0" stroke-width="1" stroke-linecap="square" stroke-linejoin="bevel" transform="matrix(1,0,0,1,59,43)"
font-family="Arial" font-size="12" font-weight="400" font-style="normal" 
>
</g>
</g>

<clipPath id ="clip43" >
<rect x="0" y="0" height="646" width="899" transform="matrix(1,0,0,1,59,43)" />
</clipPath>
<g  clip-path="url(#clip43)" 
>
<g fill="none" stroke="#cbcbcb" stroke-opacity="1" stroke-dasharray="1,2" stroke-dashoffset="0" stroke-width="1" stroke-linecap="square" stroke-linejoin="bevel" transform="matrix(1,0,0,1,59,43)"
font-family="Arial" font-size="12" font-weight="400" font-style="normal" 
>
</g>
</g>

<clipPath id ="clip44" >
<rect x="0" y="0" height="647" width="900" transform="matrix(1,0,0,1,59,43)" />
</clipPath>
<g  clip-path="url(#clip44)" 
>
<g fill="none" stroke="#cbcbcb" stroke-opacity="1" stroke-dasharray="1,2" stroke-dashoffset="0" stroke-width="1" stroke-linecap="square" stroke-linejoin="bevel" transform="matrix(1,0,0,1,59,43)"
font-family="Arial" font-size="12" font-weight="400" font-style="normal" 
>
</g>
</g>

<clipPath id ="clip45" >
<rect x="0" y="0" height="647" width="900" transform="matrix(1,0,0,1,59,43)" />
</clipPath>
<g  clip-path="url(#clip45)" 
>
<g fill="none" stroke="#cbcbcb" stroke-opacity="1" stroke-dasharray="1,2" stroke-dashoffset="0" stroke-width="1" stroke-linecap="square" stroke-linejoin="bevel" transform="matrix(1,0,0,1,59,43)"
font-family="Arial" font-size="12" font-weight="400" font-style="normal" 
>
</g>
</g>

<clipPath id ="clip46" >
<rect x="0" y="0" height="646" width="899" transform="matrix(1,0,0,1,59,43)" />
</clipPath>
<g  clip-path="url(#clip46)" 
>
<g fill="none" stroke="#cbcbcb" stroke-opacity="1" stroke-dasharray="1,2" stroke-dashoffset="0" stroke-width="1" stroke-linecap="square" stroke-linejoin="bevel" transform="matrix(1,0,0,1,59,43)"
font-family="Arial" font-size="12" font-weight="400" font-style="normal" 
>
</g>
</g>

<clipPath id ="clip47" >
<rect x="0" y="0" height="647" width="900" transform="matrix(1,0,0,1,59,43)" />
</clipPath>
<g  clip-path="url(#clip47)" 
>
<g fill="none" stroke="#cbcbcb" stroke-opacity="1" stroke-dasharray="1,2" stroke-dashoffset="0" stroke-width="1" stroke-linecap="square" stroke-linejoin="bevel" transform="matrix(1,0,0,1,59,43)"
font-family="Arial" font-size="12" font-weight="400" font-style="normal" 
>
</g>
</g>

<clipPath id ="clip48" >
<rect x="0" y="0" height="646" width="899" transform="matrix(1,0,0,1,59,43)" />
</clipPath>
<g  clip-path="url(#clip48)" 
>
<g fill="none" stroke="#cbcbcb" stroke-opacity="1" stroke-dasharray="1,2" stroke-dashoffset="0" stroke-width="1" stroke-linecap="square" stroke-linejoin="bevel" transform="matrix(1,0,0,1,59,43)"
font-family="Arial" font-size="12" font-weight="400" font-style="normal" 
>
</g>
</g>

<clipPath id ="clip49" >
<rect x="0" y="0" height="647" width="900" transform="matrix(1,0,0,1,59,43)" />
</clipPath>
<g  clip-path="url(#clip49)" 
>
<g fill="none" stroke="#cbcbcb" stroke-opacity="1" stroke-dasharray="1,2" stroke-dashoffset="0" stroke-width="1" stroke-linecap="square" stroke-linejoin="bevel" transform="matrix(1,0,0,1,59,43)"
font-family="Arial" font-size="12" font-weight="400" font-style="normal" 
>
</g>
</g>

<clipPath id ="clip50" >
<rect x="0" y="0" height="646" width="899" transform="matrix(1,0,0,1,59,43)" />
</clipPath>
<g  clip-path="url(#clip50)" 
>
<g fill="none" stroke="#cbcbcb" stroke-opacity="1" stroke-dasharray="1,2" stroke-dashoffset="0" stroke-width="1" stroke-linecap="square" stroke-linejoin="bevel" transform="matrix(1,0,0,1,59,43)"
font-family="Arial" font-size="12" font-weight="400" font-style="normal" 
>
</g>
</g>

<clipPath id ="clip51" >
<rect x="0" y="0" height="647" width="900" transform="matrix(1,0,0,1,59,43)" />
</clipPath>
<g  clip-path="url(#clip51)" 
>
<g fill="none" stroke="#cbcbcb" stroke-opacity="1" stroke-dasharray="1,2" stroke-dashoffset="0" stroke-width="1" stroke-linecap="square" stroke-linejoin="bevel" transform="matrix(1,0,0,1,59,43)"
font-family="Arial" font-size="12" font-weight="400" font-style="normal" 
>
</g>
</g>

<clipPath id ="clip52" >
<rect x="0" y="0" height="647" width="900" transform="matrix(1,0,0,1,59,43)" />
</clipPath>
<g  clip-path="url(#clip52)" 
>
<g fill="none" stroke="#cbcbcb" stroke-opacity="1" stroke-dasharray="1,2" stroke-dashoffset="0" stroke-width="1" stroke-linecap="square" stroke-linejoin="bevel" transform="matrix(1,0,0,1,59,43)"
font-family="Arial" font-size="12" font-weight="400" font-style="normal" 
>
</g>
</g>

<clipPath id ="clip53" >
<rect x="0" y="0" height="647" width="900" transform="matrix(1,0,0,1,59,43)" />
</clipPath>
<g  clip-path="url(#clip53)" 
>
<g fill="none" stroke="#cbcbcb" stroke-opacity="1" stroke-dasharray="1,2" stroke-dashoffset="0" stroke-width="1" stroke-linecap="square" stroke-linejoin="bevel" transform="matrix(1,0,0,1,59,43)"
font-family="Arial" font-size="12" font-weight="400" font-style="normal" 
>
</g>
</g>

<g  clip-path="url(#clip53)" 
>
<g fill="none" stroke="#f5f5f5" stroke-opacity="1" stroke-width="1" stroke-linecap="square" stroke-linejoin="bevel" transform="matrix(1,0,0,1,59,43)"
font-family="Arial" font-size="12" font-weight="400" font-style="normal" 
>
<polyline fill="none" vector-effect="none" points="0,646 899,646 " />
<polyline fill="none" vector-effect="none" points="0,0 0,646 " />
</g>
</g>

<clipPath id ="clip54" >
<rect x="0" y="0" height="647" width="900" transform="matrix(1,0,0,1,59,43)" />
</clipPath>
<g  clip-path="url(#clip54)" 
>
<g fill="none" stroke="#f5f5f5" stroke-opacity="1" stroke-width="1" stroke-linecap="square" stroke-linejoin="bevel" transform="matrix(1,0,0,1,59,43)"
font-family="Arial" font-size="12" font-weight="400" font-style="normal" 
>
</g>
</g>

<g >
<g fill="none" stroke="#f5f5f5" stroke-opacity="1" stroke-width="1" stroke-linecap="square" stroke-linejoin="bevel" transform="matrix(1,0,0,1,59,43)"
font-family="Arial" font-size="12" font-weight="400" font-style="normal" 
>
</g>
</g>

<g >
<g fill="none" stroke="#333333" stroke-opacity="1" stroke-width="1" stroke-linecap="square" stroke-linejoin="bevel" transform="matrix(1,0,0,1,0,0)"
font-family="Arial" font-size="20" font-weight="400" font-style="normal" 
>
<text fill="#333333" fill-opacity="1" stroke="none" xml:space="preserve" x="4" y="27" font-family="Arial" font-size="20" font-weight="400" font-style="normal" 
 >Percentages and Differences</text>
</g>
</g>

<clipPath id ="clip55" >
<rect x="0" y="0" height="98" width="140" transform="matrix(1,0,0,1,968,43)" />
</clipPath>
<g  clip-path="url(#clip55)" 
>
<g fill="none" stroke="#333333" stroke-opacity="1" stroke-width="1" stroke-linecap="square" stroke-linejoin="bevel" transform="matrix(1,0,0,1,968,43)"
font-family="Arial" font-size="20" font-weight="400" font-style="normal" 
>
</g>
</g>

<g  clip-path="url(#clip55)" 
>
<g fill="#ffffff" fill-opacity="1" stroke="none" transform="matrix(1,0,0,1,968,43)"
font-family="Arial" font-size="20" font-weight="400" font-style="normal" 
>
<rect x="0" y="0" width="140" height="98"/>
</g>
</g>

<g  clip-path="url(#clip55)" 
>
<g fill="none" stroke="#333333" stroke-opacity="1" stroke-width="1" stroke-linecap="square" stroke-linejoin="bevel" transform="matrix(1,0,0,1,968,43)"
font-family="Arial" font-size="12" font-weight="400" font-style="normal" 
>
<text fill="#333333" fill-opacity="1" stroke="none" xml:space="preserve" x="1" y="13" font-family="Arial" font-size="12" font-weight="400" font-style="normal" 
 >Measure Names</text>
</g>
</g>

<g  clip-path="url(#clip55)" 
>
<g fill="#ffffff" fill-opacity="1" stroke="none" transform="matrix(1,0,0,1,968,43)"
font-family="Arial" font-size="12" font-weight="400" font-style="normal" 
>
<rect x="3" y="18" width="14" height="14"/>
</g>
</g>

<g  clip-path="url(#clip55)" 
>
<g fill="#acc8e5" fill-opacity="1" stroke="none" transform="matrix(1,0,0,1,968,43)"
font-family="Arial" font-size="12" font-weight="400" font-style="normal" 
>
<rect x="3" y="18" width="14" height="14"/>
</g>
</g>

<g  clip-path="url(#clip55)" 
>
<g fill="none" stroke="#333333" stroke-opacity="1" stroke-width="1" stroke-linecap="square" stroke-linejoin="bevel" transform="matrix(1,0,0,1,968,43)"
font-family="Arial" font-size="12" font-weight="400" font-style="normal" 
>
<text fill="#333333" fill-opacity="1" stroke="none" xml:space="preserve" x="22" y="29" font-family="Arial" font-size="12" font-weight="400" font-style="normal" 
 >Men</text>
</g>
</g>

<g  clip-path="url(#clip55)" 
>
<g fill="#ffffff" fill-opacity="1" stroke="none" transform="matrix(1,0,0,1,968,43)"
font-family="Arial" font-size="12" font-weight="400" font-style="normal" 
>
<rect x="3" y="38" width="14" height="14"/>
</g>
</g>

<g  clip-path="url(#clip55)" 
>
<g fill="#000000" fill-opacity="1" stroke="none" transform="matrix(1,0,0,1,968,43)"
font-family="Arial" font-size="12" font-weight="400" font-style="normal" 
>
<rect x="3" y="38" width="14" height="14"/>
</g>
</g>

<g  clip-path="url(#clip55)" 
>
<g fill="none" stroke="#333333" stroke-opacity="1" stroke-width="1" stroke-linecap="square" stroke-linejoin="bevel" transform="matrix(1,0,0,1,968,43)"
font-family="Arial" font-size="12" font-weight="400" font-style="normal" 
>
<text fill="#333333" fill-opacity="1" stroke="none" xml:space="preserve" x="22" y="49" font-family="Arial" font-size="12" font-weight="400" font-style="normal" 
 >Total</text>
</g>
</g>

<g  clip-path="url(#clip55)" 
>
<g fill="#ffffff" fill-opacity="1" stroke="none" transform="matrix(1,0,0,1,968,43)"
font-family="Arial" font-size="12" font-weight="400" font-style="normal" 
>
<rect x="3" y="58" width="14" height="14"/>
</g>
</g>

<g  clip-path="url(#clip55)" 
>
<g fill="#a1cc9a" fill-opacity="1" stroke="none" transform="matrix(1,0,0,1,968,43)"
font-family="Arial" font-size="12" font-weight="400" font-style="normal" 
>
<rect x="3" y="58" width="14" height="14"/>
</g>
</g>

<g  clip-path="url(#clip55)" 
>
<g fill="none" stroke="#333333" stroke-opacity="1" stroke-width="1" stroke-linecap="square" stroke-linejoin="bevel" transform="matrix(1,0,0,1,968,43)"
font-family="Arial" font-size="12" font-weight="400" font-style="normal" 
>
<text fill="#333333" fill-opacity="1" stroke="none" xml:space="preserve" x="22" y="69" font-family="Arial" font-size="12" font-weight="400" font-style="normal" 
 >Women</text>
</g>
</g>

<g  clip-path="url(#clip55)" 
>
<g fill="#ffffff" fill-opacity="1" stroke="none" transform="matrix(1,0,0,1,968,43)"
font-family="Arial" font-size="12" font-weight="400" font-style="normal" 
>
<rect x="3" y="78" width="14" height="14"/>
</g>
</g>

<g  clip-path="url(#clip55)" 
>
<g fill="#f28e2b" fill-opacity="1" stroke="none" transform="matrix(1,0,0,1,968,43)"
font-family="Arial" font-size="12" font-weight="400" font-style="normal" 
>
<rect x="3" y="78" width="14" height="14"/>
</g>
</g>

<g  clip-path="url(#clip55)" 
>
<g fill="none" stroke="#333333" stroke-opacity="1" stroke-width="1" stroke-linecap="square" stroke-linejoin="bevel" transform="matrix(1,0,0,1,968,43)"
font-family="Arial" font-size="12" font-weight="400" font-style="normal" 
>
<text fill="#333333" fill-opacity="1" stroke="none" xml:space="preserve" x="22" y="89" font-family="Arial" font-size="12" font-weight="400" font-style="normal" 
 >Women-Men</text>
</g>
</g>

<g >
<g fill="none" stroke="#333333" stroke-opacity="1" stroke-width="1" stroke-linecap="square" stroke-linejoin="bevel" transform="matrix(1,0,0,1,968,43)"
font-family="Arial" font-size="12" font-weight="400" font-style="normal" 
>
</g>
</g>
</g>
</svg>
